<svg width="1000" height="1000" viewBox="0 0 1000 1000" fill="none" xmlns="http://www.w3.org/2000/svg">
<rect width="1000" height="1000" fill="#F5F5F5"/>
<g style="mix-blend-mode:luminosity">
<path d="M666.277 884.631L646.517 903.281C646.003 903.767 645.593 904.353 645.313 905.003C645.033 905.653 644.888 906.353 644.887 907.061V936.771C644.886 938.063 645.368 939.309 646.237 940.265C647.106 941.221 648.301 941.819 649.587 941.941L688.477 945.721L709.917 925.481C710.435 924.997 710.848 924.412 711.13 923.761C711.412 923.111 711.557 922.41 711.557 921.701V891.811C711.558 890.514 711.074 889.265 710.201 888.306C709.327 887.348 708.128 886.751 706.837 886.631L670.327 883.241C669.592 883.173 668.851 883.262 668.153 883.501C667.455 883.741 666.815 884.126 666.277 884.631Z" fill="#3FBDF1"/>
<path d="M664.207 879.449L641.017 901.339C640.413 901.91 639.932 902.598 639.604 903.362C639.275 904.125 639.106 904.948 639.107 905.779V940.639C639.105 942.155 639.669 943.617 640.688 944.74C641.707 945.862 643.108 946.564 644.617 946.709L690.257 951.149L715.427 927.389C716.031 926.818 716.512 926.13 716.841 925.366C717.169 924.603 717.338 923.78 717.337 922.949V887.869C717.336 886.349 716.767 884.884 715.743 883.761C714.718 882.638 713.311 881.938 711.797 881.799L668.957 877.799C668.093 877.72 667.223 877.826 666.404 878.111C665.585 878.395 664.836 878.851 664.207 879.449Z" fill="#3FBDF1"/>
<path d="M786.017 685.77V715.65C786.016 716.358 785.871 717.058 785.59 717.708C785.31 718.358 784.901 718.944 784.387 719.43L762.927 739.67L724.017 735.89C722.892 735.789 721.835 735.31 721.017 734.53C727.447 733.75 732.857 730.76 734.517 727.53C737.067 722.53 736.387 713.81 725.517 712.29C723.413 712.009 721.331 711.581 719.287 711.01V701C719.286 700.294 719.43 699.594 719.71 698.946C719.99 698.297 720.401 697.713 720.917 697.23L740.667 678.56C741.203 678.068 741.835 677.691 742.523 677.454C743.211 677.216 743.941 677.123 744.667 677.18L781.177 680.58C782.492 680.669 783.724 681.255 784.623 682.219C785.522 683.183 786.02 684.452 786.017 685.77Z" fill="#3FBDF1"/>
<path d="M791.807 681.829V716.899C791.805 717.735 791.633 718.561 791.301 719.328C790.969 720.095 790.485 720.786 789.877 721.359L764.727 745.099L719.087 740.669C717.577 740.522 716.176 739.818 715.157 738.694C714.138 737.57 713.575 736.106 713.577 734.589V734.449C716.059 734.845 718.587 734.872 721.077 734.529C727.507 733.749 732.917 730.759 734.577 727.529C737.127 722.529 736.447 713.809 725.577 712.289C723.473 712.008 721.391 711.58 719.347 711.009C714.467 709.519 714.167 707.889 714.167 707.889L713.567 708.269V699.769C713.56 698.94 713.726 698.118 714.053 697.355C714.38 696.592 714.861 695.906 715.467 695.339L738.667 673.439C739.297 672.844 740.047 672.39 740.865 672.106C741.684 671.821 742.554 671.713 743.417 671.789L786.257 675.789C787.765 675.932 789.166 676.629 790.191 677.744C791.216 678.859 791.792 680.315 791.807 681.829Z" fill="#3FBDF1"/>
<path d="M793.247 776.3L769.897 798.3C769.288 798.875 768.803 799.567 768.471 800.336C768.139 801.105 767.967 801.933 767.967 802.77V837.88C767.965 839.408 768.532 840.882 769.559 842.013C770.585 843.145 771.996 843.853 773.517 844L819.517 848.47L844.867 824.55C845.476 823.976 845.961 823.283 846.293 822.514C846.625 821.746 846.796 820.917 846.797 820.08V784.78C846.798 783.248 846.227 781.77 845.194 780.638C844.162 779.505 842.743 778.8 841.217 778.66L798.077 774.66C797.201 774.571 796.317 774.672 795.484 774.955C794.65 775.238 793.887 775.697 793.247 776.3Z" fill="#3FBDF1"/>
<path d="M790.797 770.18L763.387 796.05C762.674 796.724 762.106 797.536 761.717 798.437C761.329 799.338 761.128 800.308 761.127 801.29V842.49C761.128 844.282 761.797 846.01 763.002 847.337C764.207 848.664 765.863 849.496 767.647 849.67L821.587 854.91L851.327 826.83C852.043 826.158 852.613 825.346 853.002 824.444C853.39 823.543 853.59 822.571 853.587 821.59V780.13C853.574 778.337 852.894 776.614 851.679 775.295C850.465 773.977 848.802 773.159 847.017 773L796.387 768.29C795.375 768.194 794.354 768.314 793.391 768.639C792.428 768.965 791.544 769.49 790.797 770.18Z" fill="#3FBDF1"/>
<path d="M856.547 797.739L832.247 820.679C831.615 821.277 831.112 821.998 830.768 822.798C830.424 823.597 830.247 824.459 830.247 825.329V861.859C830.247 863.449 830.839 864.982 831.907 866.16C832.976 867.337 834.444 868.075 836.027 868.229L883.857 872.879L910.227 847.999C910.859 847.401 911.362 846.68 911.706 845.88C912.05 845.08 912.227 844.219 912.227 843.349V806.559C912.224 804.965 911.627 803.429 910.553 802.251C909.479 801.073 908.004 800.338 906.417 800.189L861.527 795.999C860.621 795.916 859.707 796.029 858.848 796.329C857.989 796.629 857.205 797.11 856.547 797.739Z" fill="#3FBDF1"/>
<path d="M854.017 791.372L825.497 818.292C824.754 818.994 824.163 819.841 823.759 820.779C823.355 821.718 823.147 822.73 823.147 823.752V866.632C823.146 868.495 823.839 870.291 825.09 871.67C826.342 873.049 828.063 873.913 829.917 874.092L886.017 879.552L917.017 850.332C917.76 849.63 918.351 848.783 918.755 847.844C919.159 846.905 919.367 845.894 919.367 844.872V801.722C919.365 799.853 918.666 798.051 917.407 796.67C916.148 795.288 914.418 794.426 912.557 794.252L859.867 789.352C858.804 789.254 857.733 789.384 856.725 789.732C855.716 790.08 854.793 790.639 854.017 791.372Z" fill="#3FBDF1"/>
<path d="M786.367 824.249L752.297 856.409C751.408 857.246 750.7 858.256 750.216 859.378C749.733 860.499 749.485 861.708 749.487 862.929V914.149C749.495 916.373 750.327 918.514 751.82 920.161C753.314 921.808 755.365 922.844 757.577 923.069L824.637 929.589L861.637 894.679C862.523 893.84 863.229 892.829 863.712 891.708C864.195 890.587 864.445 889.38 864.447 888.159V836.619C864.437 834.388 863.599 832.239 862.095 830.591C860.591 828.943 858.528 827.912 856.307 827.699L793.367 821.839C792.096 821.721 790.815 821.875 789.608 822.291C788.401 822.707 787.296 823.374 786.367 824.249Z" fill="#3FBDF1"/>
<path d="M782.797 815.321L742.797 853.061C741.755 854.044 740.925 855.23 740.357 856.546C739.79 857.861 739.497 859.279 739.497 860.711V920.821C739.495 923.435 740.467 925.956 742.223 927.892C743.98 929.828 746.395 931.04 748.997 931.291L827.687 938.941L871.087 897.941C872.129 896.958 872.959 895.772 873.527 894.457C874.094 893.141 874.387 891.724 874.387 890.291V829.841C874.388 827.221 873.411 824.695 871.646 822.758C869.881 820.821 867.456 819.613 864.847 819.371L791.017 812.501C789.525 812.358 788.02 812.535 786.602 813.022C785.184 813.508 783.887 814.292 782.797 815.321Z" fill="#3FBDF1"/>
<path d="M546.017 383.488C574.017 362.248 616.427 343.178 673.167 353.068" stroke="#CCDDE2" stroke-width="4.59" stroke-miterlimit="10"/>
<path d="M560.237 400.089C585.157 382.779 619.097 369.489 663.357 372.339" stroke="white" stroke-width="4.59" stroke-linecap="round" stroke-linejoin="round"/>
<path d="M755.817 391.129C783.177 416.399 797.557 452.019 802.817 488.319C806.302 512.462 806.333 536.978 802.907 561.129C802.646 562.547 802.469 563.98 802.377 565.419C804.148 564.621 805.98 563.969 807.857 563.469C830.477 557.659 854.537 556.719 876.427 565.659C894.637 573.089 910.137 586.119 921.977 601.659C937.806 622.564 947.38 647.53 949.587 673.659C953.587 723.659 929.677 763.979 893.817 792.419L893.407 792.749" stroke="#CCDDE2" stroke-width="4.59" stroke-linejoin="round"/>
<path d="M751.447 415.191C786.907 456.861 789.157 512.891 786.027 566.291C785.957 567.461 785.517 570.561 785.107 573.711" stroke="white" stroke-width="4.59" stroke-linecap="round" stroke-linejoin="round"/>
<path d="M799.547 579.74C825.707 577.14 854.747 576.37 876.997 589.37C898.997 602.23 915.377 623.02 924.807 646.56C935.517 673.28 937.237 704.56 925.267 731.18C911.837 760.98 889.597 782.31 864.427 802.28C864.357 802.33 867.427 803.01 870.627 803.73" stroke="white" stroke-width="4.59" stroke-linecap="round" stroke-linejoin="round"/>
<path d="M344.317 886.922C338.716 888.939 332.851 890.128 326.907 890.452C242.477 895.642 163.247 849.452 107.447 797.742C104.897 795.382 102.447 792.962 100.087 790.512" stroke="black" stroke-width="4.59" stroke-miterlimit="10"/>
<path d="M425.537 853.75C430.417 861.21 441.867 858.23 441.867 858.23C505.727 845.13 487.097 760.58 433.077 721.34" stroke="black" stroke-width="4.59" stroke-miterlimit="10"/>
<path d="M499.917 652.001C476.767 674.201 456.097 687.671 436.727 695.651L444.727 639.721C357.477 587.541 334.257 645.721 334.257 645.721C330.917 651.181 329.367 715.961 328.927 738.071C328.817 738.071 326.047 738.071 325.927 738.071C270.927 735.131 221.217 684.821 221.217 684.821C249.007 615.041 348.217 528.821 348.217 528.821C417.077 480.531 469.637 496.771 469.637 496.771C453.447 497.941 475.507 542.771 475.507 542.771C508.017 571.001 520.017 528.841 520.017 528.841C551.477 604.141 499.917 652.001 499.917 652.001Z" fill="#353642"/>
<path d="M556.807 619.43C556.807 619.43 551.097 692.79 501.467 690.36C501.467 690.36 482.857 670.23 483.327 654.92C483.797 639.61 525.327 544 525.327 544C525.327 544 552.247 611.14 556.807 619.43Z" fill="#353642"/>
<path d="M104.647 794.831V795.081L108.887 799.081C108.887 799.081 107.127 800.711 104.647 803.081C101.417 806.081 96.967 810.221 93.647 813.381C87.897 818.841 58.497 848.231 50.647 821.501C52.197 812.151 58.137 792.921 80.907 769.561C113.287 736.281 108.777 740.411 116.907 740.961C120.657 741.201 125.517 743.401 129.677 745.711C119.157 750.091 103.207 762.241 104.647 794.831Z" fill="#3FBDF1"/>
<path d="M138.467 751.24C138.467 751.24 106.637 754.24 104.647 794.83V795.08C104.517 797.58 104.517 800.21 104.647 803.01C101.417 806.01 96.967 810.15 93.647 813.31C87.897 818.77 58.497 848.16 50.647 821.43C52.197 812.08 58.137 792.85 80.907 769.49C113.287 736.21 108.777 740.34 116.907 740.89C120.657 741.13 125.517 743.33 129.677 745.64C132.701 747.355 135.635 749.224 138.467 751.24Z" fill="#3FBDF1"/>
<path d="M436.517 697.34C472.517 674.77 530.277 645.87 530.137 580.99C530.137 565.58 528.547 552.99 525.137 541.07L524.807 539.93C523.616 536.071 522.01 532.353 520.017 528.84" stroke="black" stroke-width="4.59" stroke-miterlimit="10"/>
<path d="M262.867 809.648C254.537 802.558 247.017 795.718 242.017 790.998L241.937 790.918C237.997 787.248 235.637 784.918 235.637 784.918C232.287 780.348 229.307 775.918 226.637 771.658C226.585 771.594 226.547 771.519 226.527 771.438C207.107 740.038 205.937 715.018 224.027 678.208C224.132 677.942 224.252 677.681 224.387 677.428C226.387 673.428 228.597 669.248 231.037 664.928C267.247 600.928 373.487 481.678 465.137 496.758" stroke="black" stroke-width="4.59" stroke-miterlimit="10"/>
<path d="M107.477 797.711C88.4769 821.291 75.1469 829.661 66.1369 831.511C57.1269 833.361 48.8269 825.371 50.1369 816.131C54.3169 786.931 88.2969 752.001 105.017 736.381C107.578 733.972 110.864 732.479 114.363 732.135C117.862 731.791 121.376 732.616 124.357 734.481L132.727 739.691C157.457 755.111 183.267 770.151 209.217 784.011C233.007 796.731 259.147 813.081 287.307 809.381" stroke="black" stroke-width="4.59" stroke-miterlimit="10"/>
<path d="M448.277 578.719C448.6 590.326 448.303 601.943 447.387 613.519C444.217 655.409 435.657 696.729 430.947 738.449C427.947 765.149 426.107 791.969 425.747 818.839C425.447 841.399 425.387 858.609 426.057 881.169C426.487 895.689 434.697 904.959 447.197 911.169C457.727 916.389 465.067 915.329 471.627 925.859C485.117 947.559 458.627 949.099 447.847 946.239C417.607 938.239 373.117 933.849 355.847 903.779C342.077 879.779 340.327 864.089 336.847 837.269C333.047 808.209 329.847 779.029 329.167 749.709C328.117 702.499 331.777 626.559 348.697 581.909" stroke="black" stroke-width="4.59" stroke-miterlimit="10"/>
<path d="M826.017 802.631L825.857 802.791L822.107 802.411L822.247 802.281L826.017 802.631Z" fill="#3FBDF1"/>
<path d="M766.527 797.52L797.337 800.57L766.527 797.77V797.52Z" fill="#3FBDF1"/>
<path d="M826.017 802.629L825.857 802.789L822.107 802.409L821.697 802.789L819.907 802.629L820.317 802.249L820.447 802.109L822.247 802.279L826.017 802.629Z" fill="#3FBDF1"/>
<path d="M826.017 802.629L825.857 802.789L822.107 802.409L820.317 802.249L820.447 802.109L822.247 802.279L826.017 802.629Z" fill="#3FBDF1"/>
<path d="M747.347 856.129L792.897 860.579L747.347 856.489V856.129Z" fill="#3FBDF1"/>
<path d="M835.327 863.612L835.087 863.852L829.537 863.292L828.937 863.852L826.287 863.612L826.887 863.052L827.087 862.852L829.747 863.092L835.327 863.612Z" fill="#3FBDF1"/>
<path d="M835.327 863.612L835.087 863.852L829.537 863.292L826.887 863.052L827.087 862.852L829.747 863.092L835.327 863.612Z" fill="#3FBDF1"/>
<path d="M524.787 539.922C524.787 539.922 554.207 638.062 588.617 660.922C621.037 682.452 664.567 673.112 698.757 661.352C708.197 658.102 717.687 654.932 727.757 655.082C741.927 655.282 770.807 658.422 774.557 674.912" stroke="black" stroke-width="4.59" stroke-miterlimit="10"/>
<path d="M486.117 664.449C536.887 767.259 626.907 746.749 673.247 728.169C677.445 726.461 681.998 725.809 686.507 726.269C690.987 726.759 694.507 728.659 698.677 730.269C705.767 733.069 713.777 735.079 721.467 734.559C729.157 734.039 738.527 728.179 735.287 719.109C732.707 711.879 724.667 712.399 718.507 711.009C712.347 709.619 710.867 700.639 716.627 697.729C716.698 697.707 716.763 697.669 716.817 697.619" stroke="black" stroke-width="4.59" stroke-miterlimit="10"/>
<path d="M717.337 882.328L690.257 907.918L639.107 903.158L666.217 877.578L717.337 882.328Z" stroke="black" stroke-width="4.59" stroke-linecap="square" stroke-linejoin="round"/>
<path d="M690.257 907.92V951.16L639.107 946.19V903.16L690.257 907.92Z" stroke="black" stroke-width="4.59" stroke-linecap="square" stroke-linejoin="round"/>
<path d="M717.337 882.328V925.598L690.257 951.158V907.918L717.337 882.328Z" stroke="black" stroke-width="4.59" stroke-linecap="square" stroke-linejoin="round"/>
<path d="M874.807 820.67L828.467 864.46L740.967 856.31L761.447 836.97V847.88L821.697 853.75L853.587 823.63V818.68L874.807 820.67Z" stroke="black" stroke-width="4.59" stroke-linecap="square" stroke-linejoin="round"/>
<path d="M828.467 864.45V938.42L740.967 929.92V856.32L828.467 864.45Z" stroke="black" stroke-width="4.59" stroke-linecap="square" stroke-linejoin="round"/>
<path d="M874.797 820.68V894.7L828.467 938.42V864.45L874.797 820.68Z" stroke="black" stroke-width="4.59" stroke-linecap="square" stroke-linejoin="round"/>
<path d="M853.587 772.67L821.697 802.79L761.447 797.2L793.367 767.07L853.587 772.67Z" stroke="black" stroke-width="4.59" stroke-linecap="square" stroke-linejoin="round"/>
<path d="M821.697 813.849V802.789L761.447 797.199V843.699" stroke="black" stroke-width="4.59" stroke-linecap="square" stroke-linejoin="round"/>
<path d="M853.587 772.672V823.632L821.697 853.752V802.792L853.587 772.672Z" stroke="black" stroke-width="4.59" stroke-linecap="square" stroke-linejoin="round"/>
<path d="M854.477 790.61L855.847 789.32L919.487 795.24L885.777 827.11L876.327 826.22" stroke="black" stroke-width="4.59" stroke-linecap="square" stroke-linejoin="round"/>
<path d="M875.767 826.16L885.777 827.11V880.92L874.807 879.86" stroke="black" stroke-width="4.59" stroke-linecap="square" stroke-linejoin="round"/>
<path d="M919.477 795.238V849.098L885.767 880.918V827.088L919.477 795.238Z" stroke="black" stroke-width="4.59" stroke-linecap="square" stroke-linejoin="round"/>
<path d="M791.797 676.498L764.717 702.088L713.567 697.328L740.677 671.738L791.797 676.498Z" stroke="black" stroke-width="4.59" stroke-linecap="square" stroke-linejoin="round"/>
<path d="M713.557 734.31V740.37L764.707 745.34V702.1L716.817 697.64L713.557 697.34V701.09V704.98" stroke="black" stroke-width="4.59" stroke-linecap="square" stroke-linejoin="round"/>
<path d="M791.797 676.5V719.77L764.717 745.33V702.09L791.797 676.5Z" stroke="black" stroke-width="4.59" stroke-linecap="square" stroke-linejoin="round"/>
<path d="M530.137 491.09C534.787 497.32 542.947 498.56 548.357 494.27" stroke="black" stroke-width="4.59" stroke-miterlimit="10"/>
<path d="M604.067 429.001C602.063 433.987 598.541 438.215 594.001 441.087C589.46 443.958 584.13 445.328 578.767 445.001C578.649 442.809 578 440.678 576.877 438.791C572.067 430.951 567.547 443.601 550.127 431.371C525.997 414.371 514.947 420.371 514.947 420.371C513.947 420.891 513.157 426.911 512.887 427.961C511.237 434.061 509.597 440.131 507.887 446.221C506.887 449.941 505.887 453.631 504.887 457.321C504.63 456.638 504.333 455.97 503.997 455.321C502.897 446.531 500.187 435.951 490.347 438.831C488.353 439.452 486.533 440.534 485.037 441.991C477.747 449.051 481.187 457.461 486.667 464.131C487.988 466.145 489.524 468.009 491.247 469.691C489.877 471.691 484.297 479.691 484.297 479.691C483.717 480.491 471.367 461.331 470.527 459.311C469.555 454.55 469.389 449.658 470.037 444.841C472.807 425.041 484.347 403.271 502.037 394.381C506.437 392.181 505.577 389.281 506.417 385.501C506.443 385.281 506.541 385.075 506.697 384.917C506.852 384.758 507.056 384.656 507.276 384.626C507.496 384.596 507.72 384.641 507.912 384.752C508.104 384.864 508.253 385.036 508.337 385.241C512.537 391.661 525.017 393.001 525.017 393.001C567.867 388.691 581.177 410.131 589.477 414.851C592.826 416.704 596.704 417.363 600.477 416.721C600.502 417.942 600.862 419.133 601.518 420.163C602.174 421.193 603.101 422.023 604.197 422.561L603.677 424.561C603.3 426.043 603.437 427.608 604.067 429.001Z" fill="#3FBDF1"/>
<path d="M578.737 445.002C584.091 445.328 589.412 443.964 593.948 441.102C598.484 438.24 602.006 434.024 604.017 429.052C604.801 427.151 605.411 425.183 605.837 423.172L605.517 423.082C605.057 422.97 604.613 422.798 604.197 422.572C603.101 422.033 602.174 421.203 601.518 420.173C600.862 419.143 600.502 417.953 600.477 416.732C600.444 416.058 600.519 415.383 600.697 414.732L603.287 405.152C603.287 405.152 594.617 409.752 586.487 405.052C578.357 400.352 566.757 378.972 522.027 383.202C522.027 383.202 512.197 382.292 508.027 375.752C507.94 375.551 507.789 375.384 507.598 375.276C507.407 375.169 507.186 375.128 506.969 375.158C506.752 375.189 506.551 375.29 506.397 375.446C506.243 375.602 506.145 375.804 506.117 376.022C505.277 379.802 503.437 382.282 499.047 384.482C481.317 393.382 469.767 415.152 467.047 434.942C466.024 443.205 467.218 451.592 470.507 459.242C471.347 461.242 483.697 480.422 484.277 479.622C484.277 479.622 489.857 471.622 491.227 469.622L491.557 469.182L491.127 468.792C489.529 467.318 488.032 465.738 486.647 464.062C481.167 457.392 477.727 448.982 485.017 441.922C486.513 440.465 488.333 439.382 490.327 438.762C500.167 435.882 502.877 446.462 503.977 455.252C504.189 456.93 504.219 458.627 504.067 460.312L504.867 457.312C505.867 453.622 506.867 449.932 507.867 446.212C509.537 440.122 511.177 434.052 512.867 427.952C513.137 426.902 513.967 420.882 514.927 420.362C514.927 420.362 525.977 414.422 550.107 431.362C567.527 443.592 572.047 430.942 576.857 438.782C577.981 440.668 578.629 442.799 578.747 444.992C578.772 445.696 578.752 446.401 578.687 447.102C578.702 447.195 578.702 447.289 578.687 447.382C578.547 448.912 578.347 450.442 578.147 451.932C576.147 466.312 572.247 481.062 564.577 493.532C555.277 508.642 534.717 521.822 517.017 511.412C511.507 508.162 506.787 503.542 502.567 498.762" stroke="black" stroke-width="4.59" stroke-miterlimit="10"/>
<path d="M565.727 475.745C566.832 473.593 566.285 471.108 564.507 470.196C562.728 469.283 560.391 470.287 559.286 472.439C558.182 474.591 558.728 477.076 560.507 477.989C562.285 478.902 564.623 477.897 565.727 475.745Z" fill="black"/>
<path d="M537.828 470.577C538.932 468.425 538.386 465.941 536.607 465.028C534.829 464.115 532.491 465.119 531.387 467.271C530.282 469.423 530.829 471.908 532.607 472.821C534.386 473.734 536.723 472.729 537.828 470.577Z" fill="black"/>
<path d="M542.577 479.309C542.577 479.309 551.107 486.029 552.507 480.619C552.947 478.949 557.757 462.709 557.757 462.709C557.757 462.709 566.517 455.869 577.177 463.529" stroke="black" stroke-width="4.59" stroke-miterlimit="10"/>
<path d="M548.207 456.491C548.207 456.491 534.287 446.671 522.687 456.011" stroke="black" stroke-width="4.59" stroke-miterlimit="10"/>
<path d="M480.667 475.07L473.447 498.35L465.197 496.8C460.007 505.46 466.697 533.45 475.547 542.8C500.797 569.56 516.327 538.67 516.327 538.67L520.017 528.81L525.367 514.55" stroke="black" stroke-width="4.59" stroke-miterlimit="10"/>
<path d="M699.367 403.738C701.249 405.428 702.755 407.494 703.788 409.802C704.822 412.11 705.36 414.609 705.367 417.138V419.998C705.375 422.02 705.806 424.018 706.631 425.863C707.457 427.708 708.659 429.361 710.161 430.714C711.663 432.067 713.432 433.091 715.353 433.72C717.274 434.35 719.305 434.57 721.317 434.368C728.787 433.608 734.247 426.818 734.247 419.268V417.128C734.241 414.618 734.761 412.135 735.771 409.838C736.782 407.54 738.263 405.48 740.117 403.788" stroke="#CCDDE2" stroke-width="4.59" stroke-linejoin="round"/>
<path d="M699.367 403.738C701.249 405.428 702.755 407.494 703.788 409.802C704.822 412.11 705.36 414.609 705.367 417.138V419.998C705.375 422.02 705.806 424.018 706.631 425.863C707.457 427.708 708.659 429.361 710.161 430.714C711.663 432.067 713.432 433.091 715.353 433.72C717.274 434.35 719.305 434.57 721.317 434.368C728.787 433.608 734.247 426.818 734.247 419.268V417.128C734.241 414.618 734.761 412.135 735.771 409.838C736.782 407.54 738.263 405.48 740.117 403.788" stroke="#CCDDE2" stroke-width="4.59" stroke-linejoin="round"/>
<path d="M699.367 403.741C698.409 402.907 697.371 402.17 696.267 401.541C687.81 396.687 681.063 389.334 676.952 380.492C672.84 371.651 671.565 361.753 673.301 352.158C675.038 342.563 679.702 333.741 686.652 326.901C693.602 320.062 702.498 315.541 712.12 313.958C721.742 312.376 731.617 313.81 740.392 318.063C749.166 322.316 756.41 329.181 761.128 337.714C765.846 346.248 767.808 356.032 766.744 365.725C765.681 375.418 761.644 384.544 755.187 391.851C755.086 391.948 754.996 392.055 754.917 392.171C751.505 395.918 747.527 399.107 743.127 401.621C742.042 402.224 741.035 402.956 740.127 403.801" stroke="#CCDDE2" stroke-width="4.59" stroke-linejoin="round"/>
<path d="M714.747 400.662C711.697 395.122 706.557 387.782 702.937 382.552C699 377.005 695.784 370.98 693.367 364.622C693.047 363.936 692.923 363.174 693.007 362.422C693.057 362.049 693.249 361.709 693.544 361.474C693.838 361.24 694.212 361.128 694.587 361.162C695.257 361.292 695.587 361.992 695.937 362.602C697.375 365.459 699.423 367.965 701.937 369.942C703.347 371.032 705.347 371.942 706.817 370.942C707.263 370.551 707.622 370.07 707.868 369.53C708.115 368.991 708.244 368.405 708.247 367.812C708.689 363.601 707.588 359.372 705.147 355.912C704.147 354.552 702.407 353.232 700.997 354.122C699.587 355.012 699.997 357.212 700.837 358.692C702.33 361.435 704.366 363.846 706.821 365.776C709.276 367.707 712.099 369.118 715.117 369.922C716.597 370.418 718.196 370.435 719.687 369.972C720.515 369.595 721.238 369.022 721.794 368.302C722.349 367.582 722.721 366.738 722.877 365.842C723.175 364.042 723.02 362.197 722.427 360.472C721.607 357.782 720.017 355.032 717.347 354.132C716.511 353.807 715.583 353.807 714.747 354.132C714.192 354.429 713.732 354.877 713.419 355.423C713.106 355.969 712.953 356.593 712.977 357.222C713.043 358.481 713.428 359.703 714.097 360.772C715.647 363.476 717.829 365.764 720.458 367.44C723.086 369.115 726.081 370.128 729.187 370.392C731.261 370.687 733.37 370.183 735.087 368.982C735.803 368.318 736.38 367.518 736.783 366.628C737.187 365.739 737.409 364.778 737.437 363.802C737.664 360.875 736.838 357.963 735.107 355.592C734.757 355.122 734.227 354.592 733.657 354.782C733.087 354.972 732.927 355.612 732.857 356.182C732.597 358.422 732.784 360.691 733.409 362.858C734.034 365.024 735.084 367.045 736.497 368.802C738.057 370.712 740.427 372.372 742.827 371.802C743.735 371.525 744.55 371.006 745.186 370.301C745.821 369.597 746.254 368.733 746.437 367.802C746.783 365.935 746.596 364.008 745.897 362.242C745.037 362.77 744.301 363.477 743.74 364.316C743.179 365.155 742.806 366.105 742.647 367.102C742.207 369.102 742.237 371.102 741.897 373.102C740.017 384.322 727.657 389.332 725.257 400.102" stroke="#CCDDE2" stroke-width="4.59" stroke-linejoin="round"/>
<path d="M719.747 296.42L719.277 268" stroke="#CCDDE2" stroke-width="4.59" stroke-linejoin="round"/>
<path d="M665.537 322.862L645.867 302.352" stroke="#CCDDE2" stroke-width="4.59" stroke-linejoin="round"/>
<path d="M774.147 324.141L794.257 304.051" stroke="#CCDDE2" stroke-width="4.59" stroke-linejoin="round"/>
<path d="M784.887 592.639C790.576 592.639 795.187 588.028 795.187 582.339C795.187 576.651 790.576 572.039 784.887 572.039C779.199 572.039 774.587 576.651 774.587 582.339C774.587 588.028 779.199 592.639 784.887 592.639Z" fill="#3FBDF1"/>
</g>
</svg>
