<svg width="1000" height="1000" viewBox="0 0 1000 1000" fill="none" xmlns="http://www.w3.org/2000/svg">
<rect width="1000" height="1000" fill="#F5F5F5"/>
<g style="mix-blend-mode:luminosity">
<path d="M647.7 952.602C658.46 952.602 668.923 952.122 679.09 951.162C747.73 944.832 802 917.772 838.09 879.992C857.181 860.301 871.618 836.584 880.34 810.582C888.555 785.966 890.951 759.78 887.34 734.082C862.4 556.942 652.94 643.082 740.75 535.342C828.56 427.602 656.66 290.572 590.7 323.002C524.74 355.432 597.48 424.792 434.48 392.002C271.48 359.212 305.21 503.282 305.21 503.282" stroke="#CCDDE2" stroke-width="4.82" stroke-miterlimit="10"/>
<path d="M208.85 799.721C208.85 799.721 134.2 746.191 105.38 805.391C105.38 805.391 135.69 697.971 239.07 659.551C239.07 659.551 268.62 643.111 269.92 653.041C271.22 662.971 279.79 668.041 283.54 667.921C287.29 667.801 318.95 669.781 320.05 665.051C321.15 660.321 319.05 646.151 334.75 646.051C350.45 645.951 435.64 666.881 460 689.001C460 689.001 417.6 740.191 440.27 796.631L421.17 792.001C421.17 792.001 432.95 894.001 416.89 953.331H139.49C139.49 953.331 167.22 956.821 195.66 936.531L236.96 883.531C236.96 883.531 255.07 856.091 292.07 852.171C292.07 852.171 313.13 849.871 312.93 839.861C312.73 829.851 320.52 846.271 330.93 831.801C332.2 831.801 357.5 833.261 357.5 833.261C357.5 833.261 376.5 835.041 380.07 818.081C383.64 801.121 396.8 682.081 392.07 674.931C387.34 667.781 385.53 667.691 345.61 667.931C305.69 668.171 270.61 660.211 265.53 680.071C260.45 699.931 254.58 775.181 254.58 775.181C254.58 775.181 232.08 781.071 214.94 805.441C215 805.431 208.85 817.311 208.85 799.721Z" fill="#2E2E2E"/>
<path d="M208.85 763.57V810.43" stroke="black" stroke-width="4.82" stroke-miterlimit="10"/>
<path d="M419.89 787.002C463.94 810.402 585.68 858.212 590 674.322C590 674.322 584.76 626.032 598.42 619.732C612.08 613.432 634.11 593.482 605.74 545.182L624.25 526.712C626.751 524.138 628.127 520.676 628.076 517.087C628.024 513.499 626.549 510.078 623.975 507.577C621.401 505.076 617.939 503.7 614.351 503.751C610.762 503.803 607.341 505.278 604.84 507.852L568.05 546.852C568.05 546.852 562.72 536.852 553.27 542.062C543.82 547.272 509.16 569.382 524.9 615.552L483.96 733.152" stroke="black" stroke-width="4.82" stroke-miterlimit="10"/>
<path d="M568 546.828C568 546.828 577.81 561.758 556.93 577.018" stroke="black" stroke-width="4.82" stroke-miterlimit="10"/>
<path d="M611.78 556.781C611.78 556.781 617.89 575.971 593.24 588.351C584.52 592.731 574.95 583.511 579.07 574.661C579.14 574.531 579.2 574.391 579.27 574.251" stroke="black" stroke-width="4.82" stroke-miterlimit="10"/>
<path d="M619.24 580.48C619.24 580.48 613.85 599.22 599.1 600.12C586.05 600.91 588.24 587.6 588.24 587.6" stroke="black" stroke-width="4.82" stroke-miterlimit="10"/>
<path d="M366.9 568.742C365.9 569.002 365.27 568.172 364.34 568.332C350.97 565.892 341.03 555.332 339.91 550.252C340.29 553.022 345.37 552.742 344.51 555.572C344.35 556.112 344.03 555.902 343.77 556.422C343.35 557.422 343.36 556.052 342.77 556.952C339.49 552.102 337.59 549.692 337.01 547.022C337.404 549.888 337.172 552.805 336.33 555.572C336.176 556.113 335.972 556.639 335.72 557.142C333.72 561.862 329.55 565.852 322.58 566.842C320.833 567.063 319.068 567.12 317.31 567.012C312.31 566.722 307.99 566.432 304.31 566.272C292.01 565.722 287.6 566.652 288.98 574.592C289.741 578.183 290.819 581.701 292.2 585.102C294.64 591.522 296.34 602.642 293.84 614.752V614.822C290.94 628.922 281.76 639.822 262.09 650.062C258.605 651.861 255.012 653.44 251.33 654.792C217.2 667.452 135.56 699.522 101.72 817.122C98.1202 829.652 95.4302 841.052 93.5302 851.462L92.6002 850.922C69.4902 837.072 54.4202 806.002 59.0002 779.272C61.2802 766.002 69.9202 756.742 81.0002 749.772C88.7802 744.952 97.1002 741.002 104.07 735.052C127.17 715.322 108.7 684.642 121.49 661.052C135.91 634.512 158.49 618.152 187.97 616.802C195.39 617.122 203.74 617.992 211.84 617.602C223.6 618.022 235.62 617.062 244.23 609.352C251.01 603.352 252.42 593.572 254.99 585.412C257.884 576.21 260.297 566.864 262.22 557.412C263.979 548.45 267.26 539.856 271.92 532.002C276.951 523.491 284.046 516.385 292.55 511.342C299.968 507.155 308.239 504.703 316.74 504.172C324.482 504.628 332.013 506.874 338.74 510.732C341.037 512.09 343.209 513.649 345.23 515.392C360.12 528.092 367.25 549.592 366.9 568.742Z" fill="#3FBDF1"/>
<path d="M592.82 599C592.82 599 588.05 604.92 590.66 610.54C593.27 616.16 599.75 617.47 606.05 615.01" stroke="black" stroke-width="4.82" stroke-miterlimit="10"/>
<path d="M605.72 545.18L592.54 558.35" stroke="black" stroke-width="4.82" stroke-miterlimit="10"/>
<path d="M254.63 773.891L265.36 681.391C265.794 677.648 267.589 674.196 270.402 671.69C273.216 669.184 276.852 667.8 280.62 667.801H379.16C381.316 667.8 383.448 668.253 385.418 669.13C387.387 670.007 389.15 671.289 390.591 672.893C392.033 674.497 393.12 676.386 393.783 678.437C394.446 680.489 394.67 682.657 394.44 684.801L380.08 818.091C379.673 821.859 377.888 825.345 375.067 827.877C372.247 830.41 368.59 831.811 364.8 831.811H329.54" stroke="black" stroke-width="4.82" stroke-miterlimit="10"/>
<path d="M371.1 691.36C373.32 691.36 375.12 689.561 375.12 687.34C375.12 685.12 373.32 683.32 371.1 683.32C368.88 683.32 367.08 685.12 367.08 687.34C367.08 689.561 368.88 691.36 371.1 691.36Z" fill="black"/>
<path d="M304.74 795.352C315.14 797.692 317.22 797.732 327.31 799.232C333.67 800.182 348.21 800.972 348.47 791.102C348.71 782.432 338.98 777.342 332.11 774.572C324.181 771.556 315.884 769.616 307.44 768.802C303.96 768.402 300.463 768.128 296.95 767.982C272.6 766.982 244.51 772.872 227.74 791.922C188.89 836.002 137.23 864.342 137.23 864.342" stroke="black" stroke-width="4.82" stroke-miterlimit="10"/>
<path d="M332.59 799.719C337.59 801.839 346.06 806.359 342.59 815.019C341.01 819.019 338.14 820.439 334.2 821.019C325.69 822.249 316.56 820.439 308.2 818.689C305.11 818.039 299.63 816.849 296.58 816.009" stroke="black" stroke-width="4.82" stroke-miterlimit="10"/>
<path d="M323.7 821.219C323.7 821.219 332.79 821.109 330.6 829.559C326.99 843.559 298.94 837.219 285.82 834.279" stroke="black" stroke-width="4.82" stroke-miterlimit="10"/>
<path d="M324.26 646.809C367 648.679 432.13 661.209 491.19 712.299" stroke="black" stroke-width="4.82" stroke-miterlimit="10"/>
<path d="M647.7 952.609L139.49 953.369" stroke="black" stroke-width="4.82" stroke-miterlimit="10"/>
<path d="M419.89 767.879C419.89 767.879 429.89 860.949 419.89 952.609" stroke="black" stroke-width="4.82" stroke-miterlimit="10"/>
<path opacity="0.54" d="M861.21 725.37L949.1 500.16C950.19 495.802 950.272 491.254 949.34 486.86C948.409 482.466 946.489 478.342 943.725 474.801C940.961 471.261 937.427 468.396 933.391 466.426C929.354 464.455 924.922 463.431 920.43 463.43H571.28C563.441 463.429 555.829 466.067 549.672 470.92C543.515 475.772 539.171 482.557 537.34 490.18L441.1 715.34C440.055 719.685 440.01 724.211 440.966 728.577C441.923 732.943 443.858 737.035 446.624 740.546C449.39 744.056 452.917 746.894 456.938 748.845C460.959 750.796 465.371 751.81 469.84 751.81H827.34C835.126 751.81 842.688 749.209 848.825 744.418C854.962 739.627 859.321 732.923 861.21 725.37Z" fill="white"/>
<path d="M861.21 725.37L949.1 500.16C950.19 495.802 950.272 491.254 949.34 486.86C948.409 482.466 946.489 478.342 943.725 474.801C940.961 471.261 937.427 468.396 933.391 466.426C929.354 464.455 924.922 463.431 920.43 463.43H571.28C563.441 463.429 555.829 466.067 549.672 470.92C543.515 475.772 539.171 482.557 537.34 490.18L441.1 715.34C440.055 719.685 440.01 724.211 440.966 728.577C441.923 732.943 443.858 737.035 446.624 740.546C449.39 744.056 452.917 746.894 456.938 748.845C460.959 750.796 465.371 751.81 469.84 751.81H827.34C835.126 751.81 842.688 749.209 848.825 744.418C854.962 739.627 859.321 732.923 861.21 725.37Z" fill="#3FBDF1"/>
<path d="M861.21 725.37L949.1 500.16C950.19 495.802 950.272 491.254 949.34 486.86C948.409 482.466 946.489 478.342 943.725 474.801C940.961 471.261 937.427 468.396 933.391 466.426C929.354 464.455 924.922 463.431 920.43 463.43H571.28C563.441 463.429 555.829 466.067 549.672 470.92C543.515 475.772 539.171 482.557 537.34 490.18L441.1 715.34C440.055 719.685 440.01 724.211 440.966 728.577C441.923 732.943 443.858 737.035 446.624 740.546C449.39 744.056 452.917 746.894 456.938 748.845C460.959 750.796 465.371 751.81 469.84 751.81H827.34C835.126 751.81 842.688 749.209 848.825 744.418C854.962 739.627 859.321 732.923 861.21 725.37Z" stroke="black" stroke-width="4.82" stroke-linecap="square" stroke-linejoin="round"/>
<path d="M848.35 716.252L929.44 508.482C930.444 504.463 930.519 500.268 929.66 496.216C928.801 492.163 927.03 488.36 924.482 485.094C921.933 481.829 918.674 479.186 914.952 477.368C911.23 475.55 907.142 474.604 903 474.602H580.87C573.637 474.6 566.615 477.034 560.934 481.511C555.254 485.989 551.247 492.248 549.56 499.282L460.77 707.002C459.807 711.011 459.765 715.186 460.649 719.214C461.532 723.241 463.317 727.016 465.87 730.254C468.423 733.492 471.677 736.11 475.387 737.909C479.097 739.708 483.167 740.642 487.29 740.642H817.11C824.29 740.638 831.264 738.237 836.924 733.818C842.583 729.399 846.605 723.217 848.35 716.252Z" fill="#3FBDF1"/>
<path d="M604.11 512.8C608.38 506.39 615.37 503.54 619.72 506.43C624.07 509.32 624.13 516.87 619.86 523.28C619.197 524.265 618.448 525.189 617.62 526.04L649.27 592.86C654.27 589.49 659.87 588.66 663.85 591.31C666.42 593.02 667.85 595.93 668.3 599.31L689.92 592.01L708.83 585.69C710.83 585 712.94 584.34 715 583.69C715.777 581.368 716.856 579.159 718.21 577.12C724.21 568.12 734.02 564.12 740.12 568.12C746.22 572.12 746.3 582.59 740.47 591.54L776.47 640.77C784.32 634.33 793.57 632.34 799.98 636.6C808.7 642.4 808.83 657.54 800.27 670.41C799.93 670.92 799.54 671.34 799.18 671.83L823.18 704.62C823.25 704.72 823.34 704.84 823.4 704.94C824.007 705.855 824.427 706.881 824.637 707.959C824.848 709.036 824.843 710.145 824.625 711.221C824.407 712.298 823.979 713.32 823.365 714.231C822.752 715.142 821.965 715.923 821.05 716.53C820.135 717.136 819.109 717.557 818.031 717.767C816.953 717.977 815.844 717.973 814.768 717.755C813.692 717.537 812.669 717.109 811.758 716.495C810.848 715.882 810.067 715.095 809.46 714.18L788.15 682.03C781.41 685.94 774.25 686.69 769 683.19C760.66 677.65 760.26 663.61 767.69 651.19L733.18 599.12C728.09 602.58 722.47 603.46 718.44 600.79C716.189 599.202 714.655 596.791 714.17 594.08C713.31 594.31 712.46 594.56 711.6 594.8L692.37 600.05L667.76 606.68C667.006 609.63 665.762 612.432 664.08 614.97C658.08 623.97 648.28 627.97 642.17 623.92C636.06 619.87 635.97 609.26 641.96 600.25C642.853 598.943 643.857 597.715 644.96 596.58L614.83 528.45C611.2 530.92 607.19 531.56 604.32 529.65C599.91 526.77 599.84 519.22 604.11 512.8Z" fill="white"/>
<path d="M833.31 516.489H880C882.136 516.489 884.226 515.866 886.014 514.698C887.802 513.529 889.212 511.865 890.07 509.909C890.344 509.309 890.491 508.659 890.5 507.999C890.49 506.724 889.976 505.505 889.072 504.606C888.168 503.707 886.945 503.202 885.67 503.199H836C838.37 507.149 837.19 512.609 833.31 516.489Z" fill="#D7E8F0"/>
<path d="M803.12 511.699C803.123 512.971 803.63 514.189 804.53 515.087C805.429 515.985 806.649 516.489 807.92 516.489H833.31C837.19 512.609 838.37 507.149 836.04 503.199H813.62C811.486 503.198 809.398 503.818 807.61 504.982C805.822 506.147 804.411 507.807 803.55 509.759C803.278 510.371 803.132 511.03 803.12 511.699Z" fill="#3FBDF1"/>
<path d="M814.8 516.489C814.932 516.746 815.086 516.99 815.26 517.219C818.59 521.769 825.81 522.219 831.43 518.099C832.095 517.609 832.723 517.071 833.31 516.489C837.19 512.609 838.37 507.149 836.04 503.199C835.908 502.946 835.754 502.705 835.58 502.479C832.28 497.899 825.06 497.479 819.44 501.569C818.766 502.067 818.128 502.612 817.53 503.199C813.68 507.089 812.5 512.519 814.8 516.489Z" fill="white"/>
<path d="M791.38 541.002C791.39 542.276 791.904 543.494 792.809 544.391C793.713 545.288 794.936 545.792 796.21 545.792H845.21C842.84 541.792 844.02 536.392 847.91 532.512H801.91C799.774 532.512 797.684 533.135 795.896 534.303C794.108 535.472 792.698 537.136 791.84 539.092C791.56 539.691 791.404 540.341 791.38 541.002Z" fill="#3FBDF1"/>
<path d="M845.2 545.792H868.2C870.333 545.794 872.42 545.176 874.208 544.013C875.996 542.85 877.407 541.192 878.27 539.242C878.546 538.632 878.693 537.971 878.7 537.302C878.701 536.672 878.578 536.049 878.338 535.467C878.098 534.885 877.745 534.357 877.3 533.912C876.855 533.467 876.326 533.114 875.744 532.874C875.163 532.633 874.539 532.51 873.91 532.512H847.9C844 536.392 842.83 541.822 845.2 545.792Z" fill="#D7E8F0"/>
<path d="M845.2 545.791C845.303 546.053 845.445 546.299 845.62 546.521C848.93 551.101 856.15 551.521 861.76 547.431C862.44 546.937 863.079 546.389 863.67 545.791C867.52 541.911 868.67 536.481 866.4 532.511C866.272 532.254 866.121 532.01 865.95 531.781C862.61 527.231 855.39 526.781 849.78 530.901C849.111 531.386 848.482 531.924 847.9 532.511C844 536.391 842.83 541.821 845.2 545.791Z" fill="white"/>
<path d="M828.88 574.892H858.21C860.344 574.893 862.432 574.273 864.22 573.108C866.008 571.944 867.419 570.284 868.28 568.332C868.556 567.732 868.703 567.081 868.71 566.422C868.705 565.143 868.194 563.919 867.289 563.016C866.384 562.113 865.158 561.604 863.88 561.602H831.61C833.91 565.572 832.73 571.002 828.88 574.892Z" fill="#3FBDF1"/>
<path d="M781.34 570.122C781.345 571.39 781.853 572.605 782.753 573.499C783.653 574.394 784.871 574.894 786.14 574.892H828.88C832.73 571.002 833.88 565.572 831.61 561.602H791.84C789.704 561.602 787.614 562.225 785.826 563.393C784.037 564.562 782.628 566.225 781.77 568.182C781.496 568.792 781.349 569.452 781.34 570.122Z" fill="#D7E8F0"/>
<path d="M810.37 574.89C810.502 575.143 810.656 575.384 810.83 575.61C814.13 580.19 821.35 580.61 826.97 576.52C827.644 576.022 828.282 575.477 828.88 574.89C832.73 571 833.88 565.57 831.61 561.6C831.478 561.343 831.324 561.099 831.15 560.87C827.82 556.32 820.6 555.93 814.98 559.99C814.315 560.48 813.687 561.018 813.1 561.6C809.22 565.48 808 570.94 810.37 574.89Z" fill="white"/>
<path d="M639.26 712.138H668.59C670.724 712.14 672.812 711.52 674.6 710.355C676.388 709.19 677.798 707.531 678.66 705.578C678.995 704.848 679.139 704.045 679.079 703.244C679.02 702.443 678.758 701.671 678.318 700.998C677.879 700.326 677.276 699.776 676.566 699.4C675.856 699.024 675.063 698.834 674.26 698.848H642C644.29 702.818 643.11 708.248 639.26 712.138Z" fill="#3FBDF1"/>
<path d="M522.82 707.372C522.821 707.999 522.946 708.621 523.188 709.2C523.429 709.78 523.782 710.306 524.227 710.749C524.672 711.192 525.199 711.543 525.78 711.782C526.36 712.021 526.982 712.143 527.61 712.142H639.26C643.11 708.252 644.26 702.822 641.99 698.852H533.32C531.184 698.852 529.094 699.475 527.306 700.643C525.517 701.812 524.108 703.475 523.25 705.432C522.975 706.042 522.829 706.702 522.82 707.372Z" fill="#D7E8F0"/>
<path d="M620.75 712.14C620.882 712.393 621.036 712.634 621.21 712.86C624.51 717.45 631.73 717.86 637.35 713.77C638.024 713.272 638.662 712.727 639.26 712.14C643.11 708.25 644.26 702.82 641.99 698.85C641.859 698.593 641.705 698.349 641.53 698.12C638.19 693.57 630.97 693.18 625.36 697.24C624.695 697.73 624.067 698.268 623.48 698.85C619.6 702.73 618.42 708.19 620.75 712.14Z" fill="white"/>
<path d="M95.1998 856.18C91.4758 854.711 87.8745 852.949 84.4298 850.91C61.2998 837.06 46.2298 806 50.8198 779.26C53.1098 765.99 61.7498 756.74 72.8698 749.76C80.6398 744.94 88.9998 741 95.9398 735.05C119.04 715.32 100.56 684.63 113.35 661.05C128.9 632.45 153.9 615.68 186.84 616.77C202.65 617.29 223.18 620.92 236.09 609.35C242.87 603.35 244.29 593.57 246.86 585.41C249.757 576.208 252.173 566.862 254.1 557.41C255.831 548.449 259.092 539.854 263.74 532C268.77 523.48 275.865 516.365 284.37 511.31C300.37 502.08 322.68 501.23 338.76 510.72C341.049 512.081 343.217 513.637 345.24 515.37C360.12 528.13 367.24 549.62 366.9 568.78" stroke="black" stroke-width="4.82" stroke-miterlimit="10"/>
<path d="M336.68 545.328C337.51 550.968 340.94 556.168 347.03 557.728C353.91 559.478 357.56 566.178 359.5 572.908C362.257 582.782 361.551 593.301 357.5 602.718C353.74 611.578 347.04 621.718 335.71 623.308C314.98 626.308 304.66 617.528 304.66 617.528" stroke="black" stroke-width="4.82" stroke-miterlimit="10"/>
<path d="M319.41 575.46C321.376 575.46 322.97 573.866 322.97 571.9C322.97 569.934 321.376 568.34 319.41 568.34C317.444 568.34 315.85 569.934 315.85 571.9C315.85 573.866 317.444 575.46 319.41 575.46Z" fill="black"/>
<path d="M350.72 573.1C352.686 573.1 354.28 571.507 354.28 569.54C354.28 567.574 352.686 565.98 350.72 565.98C348.754 565.98 347.16 567.574 347.16 569.54C347.16 571.507 348.754 573.1 350.72 573.1Z" fill="black"/>
<path d="M311.15 838.248C316.33 841.428 312.15 846.668 308.39 848.438C301.93 851.438 293.58 851.968 286.54 852.808C233.01 859.108 215.14 932.588 181.54 946.248C147.94 959.908 57.7696 969.888 101.75 817.108C135.61 699.528 217.25 667.458 251.38 654.798C255.054 653.448 258.64 651.871 262.12 650.078C281.79 639.858 291 628.918 293.89 614.808C293.89 614.808 293.89 614.808 293.89 614.748C296.39 602.638 294.71 591.518 292.26 585.088C290.855 581.692 289.764 578.174 289 574.578C287.18 564.348 295.08 565.788 317.26 567.008C327.44 567.608 333.2 563.008 335.68 557.148C335.923 556.64 336.121 556.111 336.27 555.568C337.313 552.25 337.438 548.711 336.63 545.328" stroke="black" stroke-width="4.82" stroke-miterlimit="10"/>
<path d="M334.75 572.762C334.75 572.762 338.49 586.432 338.11 588.452C337.73 590.472 332.94 588.912 332.94 588.912" stroke="black" stroke-width="4.82" stroke-miterlimit="10"/>
<path d="M332.17 601.43C325 605.29 316.71 602.86 313.47 596.43" stroke="black" stroke-width="4.82" stroke-miterlimit="10"/>
<path d="M325.127 586.446C331.805 580.141 332.231 569.746 326.078 563.228C319.925 556.71 309.523 556.537 302.844 562.842C296.166 569.147 295.74 579.542 301.893 586.06C308.046 592.578 318.448 592.751 325.127 586.446Z" stroke="black" stroke-width="4.82" stroke-miterlimit="10"/>
<path d="M366.657 582.657C373.336 576.352 373.762 565.957 367.609 559.439C361.456 552.921 351.054 552.748 344.375 559.053C337.696 565.358 337.27 575.753 343.423 582.271C349.576 588.789 359.979 588.962 366.657 582.657Z" stroke="black" stroke-width="4.82" stroke-miterlimit="10"/>
<path d="M355.86 559.45C358.67 559.432 361.381 560.49 363.436 562.407C365.491 564.324 366.734 566.955 366.91 569.76C367.089 572.815 366.076 575.819 364.084 578.142C362.092 580.464 359.276 581.923 356.23 582.21C355.88 582.21 355.52 582.21 355.17 582.21C352.376 582.23 349.679 581.186 347.626 579.29C345.574 577.393 344.321 574.787 344.12 572C343.927 568.937 344.934 565.92 346.928 563.587C348.921 561.253 351.745 559.788 354.8 559.5C355.15 559.5 355.51 559.5 355.86 559.5V559.45ZM355.86 557.09C355.44 557.09 355.01 557.09 354.58 557.15C350.91 557.499 347.519 559.256 345.119 562.054C342.719 564.851 341.497 568.47 341.71 572.15C341.934 575.562 343.451 578.761 345.952 581.093C348.454 583.425 351.75 584.715 355.17 584.7C355.59 584.7 356.02 584.7 356.45 584.64C360.121 584.297 363.514 582.54 365.913 579.741C368.313 576.942 369.531 573.32 369.31 569.64C369.11 566.213 367.605 562.992 365.103 560.641C362.601 558.29 359.293 556.987 355.86 557V557.09Z" fill="white"/>
<path d="M330.39 573.159L339.11 572.359" stroke="black" stroke-width="4.82" stroke-miterlimit="10"/>
<path d="M314.34 562.921C317.235 562.893 320.031 563.978 322.149 565.953C324.267 567.927 325.546 570.64 325.72 573.531C325.907 576.678 324.865 579.775 322.813 582.169C320.761 584.563 317.859 586.066 314.72 586.361C314.36 586.361 313.99 586.361 313.63 586.361C310.732 586.387 307.935 585.3 305.816 583.323C303.697 581.347 302.417 578.633 302.24 575.741C302.055 572.595 303.098 569.501 305.15 567.109C307.202 564.718 310.103 563.216 313.24 562.921C313.605 562.884 313.973 562.868 314.34 562.871V562.921ZM314.34 560.461C313.9 560.461 313.46 560.481 313.02 560.521C309.238 560.872 305.743 562.688 303.281 565.58C300.818 568.472 299.584 572.211 299.84 576.001C300.069 579.497 301.623 582.775 304.186 585.164C306.748 587.554 310.126 588.876 313.63 588.861C314.06 588.861 314.5 588.861 314.94 588.801C318.704 588.447 322.184 586.644 324.643 583.772C327.103 580.9 328.349 577.185 328.12 573.411C327.893 569.915 326.341 566.638 323.78 564.248C321.219 561.858 317.843 560.536 314.34 560.551V560.461Z" fill="white"/>
<path d="M365.079 580.982C370.805 575.576 371.167 566.658 365.886 561.064C360.605 555.469 351.681 555.317 345.954 560.723C340.227 566.129 339.866 575.047 345.147 580.641C350.428 586.236 359.352 586.388 365.079 580.982Z" fill="#3FBDF1"/>
<path d="M326.55 585.358C332.327 579.897 332.689 570.898 327.358 565.258C322.026 559.617 313.021 559.472 307.244 564.933C301.466 570.393 301.105 579.393 306.436 585.033C311.767 590.673 320.772 590.819 326.55 585.358Z" fill="#3FBDF1"/>
<path d="M278.73 667.919C274.33 663.329 270.51 656.579 268 646.809" stroke="black" stroke-width="4.82" stroke-miterlimit="10"/>
<path d="M319.41 667.801L324.26 646.811L329.53 624.191" stroke="black" stroke-width="4.82" stroke-miterlimit="10"/>
<path d="M339.235 751.377C341.099 742.231 336.056 733.481 327.971 731.833C319.886 730.185 311.821 736.264 309.957 745.409C308.093 754.555 313.136 763.305 321.221 764.952C329.306 766.6 337.371 760.522 339.235 751.377Z" fill="#D7E8F0"/>
<path d="M648.57 900.18L640.37 946C640.14 947.286 639.465 948.451 638.463 949.29C637.462 950.129 636.197 950.589 634.89 950.59H592C590.68 950.591 589.402 950.123 588.394 949.269C587.387 948.416 586.716 947.232 586.5 945.93L579 900.18H648.57Z" stroke="#CCDDE2" stroke-width="4.82" stroke-miterlimit="10"/>
<path d="M656.37 895.058C656.255 896.452 655.62 897.751 654.592 898.699C653.565 899.648 652.218 900.175 650.82 900.178H576.82C575.44 900.178 574.11 899.667 573.085 898.744C572.06 897.82 571.413 896.55 571.27 895.178C571.196 894.405 571.285 893.625 571.53 892.888C571.775 892.151 572.172 891.474 572.695 890.9C573.217 890.325 573.854 889.866 574.565 889.553C575.275 889.239 576.043 889.077 576.82 889.078H650.82C651.585 889.079 652.343 889.237 653.044 889.544C653.746 889.85 654.377 890.298 654.898 890.859C655.418 891.42 655.818 892.083 656.071 892.805C656.325 893.528 656.426 894.295 656.37 895.058Z" stroke="#CCDDE2" stroke-width="4.82" stroke-miterlimit="10"/>
<path d="M616.15 889.001C616.15 886.651 622.15 857.381 617.15 831.431C614.43 817.191 608.43 803.961 596.35 796.711" stroke="#CCDDE2" stroke-width="4.82" stroke-miterlimit="10"/>
<path d="M617.17 831.471C617.17 831.471 618.54 811.751 635.58 810.391" stroke="#CCDDE2" stroke-width="4.82" stroke-miterlimit="10"/>
<path d="M619 861.561C623.848 858.165 629.687 856.476 635.6 856.761" stroke="#CCDDE2" stroke-width="4.82" stroke-miterlimit="10"/>
<path d="M619 847.55C619 847.55 606.62 832.89 586.84 844.49" stroke="#CCDDE2" stroke-width="4.82" stroke-miterlimit="10"/>
<path d="M610.27 841.649C610.27 841.649 582.39 816.189 576.93 850.649C576.93 850.649 584.78 855.759 596.37 850.649C607.96 845.539 610.27 841.649 610.27 841.649Z" stroke="#CCDDE2" stroke-width="4.82" stroke-miterlimit="10"/>
<path d="M623.3 816.391C623.3 816.391 622.3 804.931 635.58 801.181C648.86 797.431 656.39 813.121 656.39 813.121C656.39 813.121 646.14 824.451 623.3 816.391Z" stroke="#CCDDE2" stroke-width="4.82" stroke-miterlimit="10"/>
<path d="M626.38 856.751C626.38 856.751 625.92 845.161 641.38 847.551C656.84 849.941 659.38 863.131 659.38 863.131C659.38 863.131 634.06 872.411 626.38 857.971" stroke="#CCDDE2" stroke-width="4.82" stroke-miterlimit="10"/>
<path d="M607.75 807.471C607.75 808.291 596.13 806.471 595.39 806.211C589.76 804.531 585.76 800.631 583.13 795.471C582.32 793.871 577.63 784.901 578.96 783.341C579 783.341 606.62 774.441 607.75 807.471Z" stroke="#CCDDE2" stroke-width="4.82" stroke-miterlimit="10"/>
<path d="M880.36 810.578C871.639 836.584 857.202 860.305 838.11 879.998C802 917.778 747.73 944.838 679.11 951.168V810.578H880.36Z" stroke="#CCDDE2" stroke-width="4.82" stroke-miterlimit="10"/>
<path d="M838.11 880C802 917.78 747.73 944.84 679.11 951.17V880H838.11Z" stroke="#CCDDE2" stroke-width="4.82" stroke-miterlimit="10"/>
<path d="M817.22 846.674C817.22 841.066 812.674 836.52 807.065 836.52C801.457 836.52 796.91 841.066 796.91 846.674C796.91 852.283 801.457 856.83 807.065 856.83C812.674 856.83 817.22 852.283 817.22 846.674Z" stroke="#CCDDE2" stroke-width="4.82" stroke-miterlimit="10"/>
</g>
</svg>
