<svg width="1001" height="1000" viewBox="0 0 1001 1000" fill="none" xmlns="http://www.w3.org/2000/svg">
<rect width="1001" height="1000" fill="#F5F5F5"/>
<g style="mix-blend-mode:luminosity">
<path d="M768.583 718.628L766.813 735.528C762.206 746.535 757.603 757.535 753.003 768.528C751.396 772.388 749.783 776.242 748.163 780.088C747.428 781.888 746.386 783.546 745.083 784.988C745.018 785.085 744.933 785.166 744.832 785.225C744.732 785.284 744.619 785.319 744.503 785.328C744.113 785.328 743.973 784.808 743.943 784.418C743.721 780.25 743.224 776.101 742.453 771.998C738.143 752.188 715.143 744.928 697.103 745.378C689.886 745.488 682.774 747.135 676.243 750.208C666.823 754.768 663.153 767.448 662.653 767.918L662.253 769.548L655.793 796.458C654.433 802.458 653.393 805.628 647.853 807.228C647.673 807.288 642.153 810.228 641.973 810.228C639.833 810.828 645.693 809.538 643.373 809.148L636.023 807.998L632.893 807.278L587.223 796.468C588.993 796.768 590.803 797.098 592.643 797.468L603.243 799.998L600.443 786.558C593.153 744.718 605.233 706.758 625.813 686.148C631.233 680.728 633.923 679.338 640.243 675.728L643.793 684.138C643.793 684.138 680.113 694.968 688.673 661.738C692.133 662.038 698.783 661.988 702.213 662.738C720.092 666.487 736.24 676.017 748.163 689.858C749.213 691.058 750.243 692.298 751.263 693.558L751.803 694.218C752.433 695.008 753.103 695.818 753.733 696.628L754.183 697.268C759.41 704.091 764.219 711.224 768.583 718.628Z" fill="#353642"/>
<path d="M337.023 543.712C342.783 514.912 367.243 487.012 437.103 480.622C592.383 466.432 508.443 423.622 559.003 376.772C609.563 329.922 800.733 407.002 750.723 527.382C700.713 647.762 865.803 514.152 935.723 666.632C945.852 688.759 950.729 712.928 949.973 737.252C949.091 762.952 942.473 788.13 930.603 810.942C908.273 854.562 866.793 893.422 806.803 917.502C797.95 921.109 788.683 924.352 779.003 927.232" stroke="#CCDDE2" stroke-width="4.52" stroke-miterlimit="10"/>
<path d="M828.903 780.572C827.693 794.702 818.113 797.002 818.113 797.002C810.013 801.792 797.573 796.642 795.063 787.662C795.026 787.566 795.006 787.465 795.003 787.362C793.003 779.672 789.103 769.792 783.863 758.982C773.763 734.542 760.633 709.902 743.793 690.412C731.869 676.572 715.722 667.042 697.843 663.292C697.783 663.292 697.753 663.232 697.693 663.232C673.983 656.092 662.443 641.512 657.443 627.532C657.443 627.532 657.443 627.532 657.443 627.472C655.303 618.642 653.123 610.032 654.293 604.822C656.293 595.692 657.293 585.822 654.803 583.822C651.673 581.202 646.013 583.142 631.613 586.042C619.143 588.602 612.493 587.152 610.993 579.532C610.756 578.35 610.635 577.147 610.633 575.942C610.573 576.702 607.633 573.682 607.493 574.402C606.553 578.292 604.673 579.852 600.573 581.562C594.483 584.092 591.993 593.862 591.093 600.372C590.153 607.302 593.273 616.862 595.743 623.372C592.583 619.762 588.963 620.182 583.303 622.372C581.883 622.912 578.303 622.762 575.473 621.772C575.873 621.429 576.344 621.179 576.853 621.042C577.763 620.742 571.163 617.462 572.123 617.252C581.733 615.082 587.123 607.072 585.983 600.022C583.153 582.272 586.923 561.392 598.913 547.562C612.133 532.352 633.703 529.192 651.963 536.152C666.303 541.602 679.863 552.782 684.833 567.692C684.833 567.752 684.833 567.812 684.893 567.872C685.525 569.768 686.01 571.711 686.343 573.682C688.173 584.772 684.263 596.012 682.093 606.972C681.313 610.922 683.293 615.232 683.713 618.362C686.123 637.162 707.823 642.472 724.993 650.452C761.083 667.262 790.553 696.002 810.373 730.952C823.533 754.092 828.233 769.872 828.903 780.572Z" fill="#3FBDF1"/>
<path d="M638.643 672C638.253 672.21 637.863 672.42 637.503 672.66C631.022 676.375 625.063 680.935 619.783 686.22C599.213 706.83 587.133 744.79 594.423 786.63L597.223 800" stroke="black" stroke-width="4.52" stroke-miterlimit="10"/>
<path d="M820.643 952.739C820.647 921.504 817.947 890.328 812.573 859.559C808.978 838.682 804.028 818.062 797.753 797.829C793.983 785.539 789.373 772.279 783.893 758.969C778.804 746.513 772.925 734.395 766.293 722.689C759.862 711.226 752.337 700.412 743.823 690.399C731.899 676.559 715.752 667.028 697.873 663.279C694.444 662.552 690.974 662.031 687.483 661.719" stroke="black" stroke-width="4.52" stroke-miterlimit="10"/>
<path d="M451.023 680.911L450.513 680.821C444.406 679.798 438.14 680.324 432.289 682.35C426.438 684.377 421.189 687.84 417.023 692.421L382.823 729.681L378.823 734.081C378.574 734.351 378.34 734.635 378.123 734.931" stroke="black" stroke-width="4.52" stroke-miterlimit="10"/>
<path d="M401.633 744.659L420.403 723.839L420.433 723.809" stroke="black" stroke-width="4.52" stroke-miterlimit="10"/>
<path d="M564.913 852.198L653.203 883.308C661.706 886.304 670.754 887.435 679.733 886.622C688.711 885.809 697.41 883.073 705.236 878.598C713.063 874.124 719.834 868.016 725.089 860.691C730.345 853.366 733.961 844.996 735.693 836.148L756.583 729.508C757.652 724.032 757.602 718.397 756.437 712.94C755.272 707.484 753.015 702.32 749.803 697.758C748.906 696.473 747.931 695.244 746.883 694.078" stroke="black" stroke-width="4.52" stroke-miterlimit="10"/>
<path d="M506.483 847.9C495.243 855.49 486.983 878.54 482.593 893.67C481.841 896.207 480.286 898.433 478.162 900.012C476.038 901.591 473.46 902.44 470.813 902.43C469.021 902.43 467.25 902.041 465.623 901.29C463.126 900.119 461.097 898.141 459.864 895.676C458.63 893.21 458.263 890.4 458.823 887.7C466.173 851.76 492.113 780.81 581.223 796.45C583.003 796.75 584.813 797.08 586.643 797.45L597.223 800L626.893 807.23L634.893 809.16C637.928 809.896 641.108 809.782 644.083 808.83C644.267 808.794 644.447 808.744 644.623 808.68C647.363 807.74 649.822 806.124 651.771 803.98C653.72 801.837 655.097 799.237 655.773 796.42L662.523 768.34L662.913 766.71L671.753 730" stroke="black" stroke-width="4.52" stroke-miterlimit="10"/>
<path d="M463.023 732.828H432.783C429.335 732.828 426.029 731.458 423.591 729.021C421.153 726.583 419.783 723.276 419.783 719.828C419.783 716.38 421.153 713.074 423.591 710.636C426.029 708.198 429.335 706.828 432.783 706.828H475.623" stroke="black" stroke-width="4.52" stroke-miterlimit="10"/>
<path d="M439.813 732.82C439.383 738.12 437.363 742.04 434.383 744.75C426.703 751.75 412.633 750.95 402.843 746.16" stroke="black" stroke-width="4.52" stroke-miterlimit="10"/>
<path d="M382.863 729.668C374.193 719.188 375.963 704.978 382.693 693.998C401.783 662.838 445.403 668.818 473.693 681.768C496.613 692.228 516.693 707.948 536.243 723.628C545.793 731.288 555.173 739.268 564.243 747.628C565.908 749.135 567.893 750.245 570.049 750.873C572.205 751.502 574.475 751.633 576.689 751.258C578.903 750.883 581.003 750.01 582.831 748.706C584.659 747.402 586.168 745.7 587.243 743.728C592.243 734.498 597.653 724.428 598.673 721.638" stroke="black" stroke-width="4.52" stroke-miterlimit="10"/>
<path d="M434.393 744.75C434.393 744.75 479.503 769.22 513.013 804.38" stroke="black" stroke-width="4.52" stroke-miterlimit="10"/>
<path d="M495.473 861.171C490.473 869.711 494.773 882.251 504.223 885.251C516.292 889.145 529.052 890.424 541.653 889.001C555.403 887.401 564.543 876.051 570.563 863.051C570.999 862.084 571.226 861.035 571.23 859.975C571.234 858.914 571.015 857.864 570.587 856.894C570.159 855.923 569.531 855.053 568.745 854.341C567.958 853.629 567.031 853.091 566.023 852.761C564.204 852.162 562.226 852.271 560.483 853.066C558.741 853.861 557.362 855.284 556.623 857.051C554.623 861.671 551.533 867.451 547.433 870.051" stroke="black" stroke-width="4.52" stroke-miterlimit="10"/>
<path d="M519.023 859.57C519.023 859.57 506.673 872.85 516.413 886.91C516.841 887.501 517.345 888.032 517.913 888.49" stroke="black" stroke-width="4.52" stroke-miterlimit="10"/>
<path d="M535.313 861.762C535.313 861.762 523.893 887.462 538.543 889.342" stroke="black" stroke-width="4.52" stroke-miterlimit="10"/>
<path d="M940.763 952.762H233.523" stroke="black" stroke-width="4.52" stroke-miterlimit="10"/>
<path d="M511.753 904.329H441.223C440.507 910.987 437.353 917.145 432.368 921.617C427.383 926.089 420.92 928.558 414.223 928.549H177.163C177.176 934.961 179.729 941.106 184.263 945.639C188.796 950.173 194.941 952.726 201.353 952.739H511.753C518.175 952.736 524.335 950.19 528.883 945.656C533.432 941.122 535.999 934.971 536.023 928.549V912.289C536.023 910.167 535.18 908.132 533.68 906.632C532.18 905.132 530.145 904.289 528.023 904.289L511.753 904.329Z" stroke="black" stroke-width="4.52" stroke-miterlimit="10"/>
<path d="M402.843 746.16C404.921 749.035 406.416 752.29 407.243 755.74L440.653 895.08C441.391 898.105 441.584 901.237 441.223 904.33C440.507 910.988 437.353 917.146 432.368 921.618C427.383 926.089 420.92 928.559 414.223 928.55H172.763C166.665 928.549 160.744 926.494 155.957 922.717C151.169 918.94 147.793 913.66 146.373 907.73L113.023 768.4C112.064 764.41 112.023 760.256 112.902 756.248C113.781 752.24 115.557 748.484 118.098 745.262C120.638 742.04 123.876 739.436 127.568 737.647C131.26 735.857 135.31 734.928 139.413 734.93H380.853C384.819 734.922 388.739 735.79 392.331 737.472C395.923 739.154 399.099 741.608 401.633 744.66L402.843 746.16Z" stroke="black" stroke-width="4.52" stroke-miterlimit="10"/>
<path d="M365.023 572.752C363.483 570.942 361.863 569.202 360.173 567.512C350.69 557.996 339.42 550.447 327.011 545.298C314.602 540.15 301.298 537.504 287.863 537.512H161.283C147.852 537.506 134.551 540.148 122.141 545.286C109.731 550.424 98.4559 557.957 88.959 567.455C79.4621 576.953 71.9301 588.229 66.7935 600.639C61.6569 613.05 59.0164 626.35 59.023 639.782V640.512C59.0101 650.041 61.4372 659.416 66.073 667.742C71.2825 673.047 77.5007 677.257 84.3616 680.123C91.2225 682.99 98.5875 684.454 106.023 684.432H230.123C233.91 684.432 237.542 685.936 240.22 688.614C242.898 691.292 244.403 694.924 244.403 698.712C244.408 702.504 245.918 706.138 248.601 708.818C251.284 711.497 254.921 713.002 258.713 713.002H259.023L289.663 712.222C289.663 711.922 289.603 711.652 289.603 711.382C286.954 710.471 284.656 708.755 283.03 706.475C281.404 704.194 280.531 701.463 280.533 698.662V698.002C280.536 694.215 282.041 690.585 284.718 687.907C287.396 685.23 291.027 683.724 294.813 683.722H325.023C339.875 683.722 354.119 677.822 364.621 667.32C375.123 656.818 381.023 642.574 381.023 627.722C381.075 608.243 375.521 589.16 365.023 572.752ZM145.823 632.002C140.98 632.004 136.245 630.569 132.218 627.88C128.19 625.19 125.051 621.366 123.197 616.892C121.344 612.418 120.859 607.495 121.804 602.745C122.749 597.995 125.081 593.632 128.507 590.208C131.932 586.784 136.296 584.454 141.046 583.51C145.796 582.567 150.719 583.054 155.193 584.91C159.666 586.766 163.488 589.906 166.176 593.935C168.864 597.963 170.297 602.699 170.293 607.542C170.285 614.028 167.704 620.247 163.117 624.832C158.529 629.418 152.309 631.996 145.823 632.002ZM225.693 632.002C220.851 632 216.118 630.562 212.093 627.87C208.068 625.178 204.932 621.353 203.082 616.878C201.231 612.404 200.749 607.481 201.696 602.732C202.643 597.984 204.978 593.623 208.404 590.201C211.83 586.779 216.193 584.45 220.943 583.509C225.693 582.567 230.615 583.056 235.087 584.912C239.559 586.768 243.381 589.909 246.068 593.937C248.755 597.965 250.187 602.7 250.183 607.542C250.183 610.756 249.549 613.939 248.318 616.909C247.087 619.879 245.283 622.576 243.008 624.848C240.734 627.12 238.034 628.921 235.063 630.148C232.092 631.376 228.908 632.006 225.693 632.002ZM301.763 632.002C296.921 631.998 292.19 630.558 288.166 627.865C284.142 625.172 281.008 621.346 279.159 616.871C277.31 612.397 276.829 607.474 277.777 602.726C278.726 597.978 281.061 593.618 284.487 590.198C287.914 586.777 292.277 584.449 297.027 583.508C301.776 582.568 306.698 583.056 311.17 584.913C315.641 586.769 319.462 589.91 322.148 593.938C324.835 597.966 326.267 602.7 326.263 607.542C326.263 610.757 325.629 613.941 324.397 616.911C323.166 619.882 321.36 622.58 319.085 624.852C316.809 627.124 314.108 628.924 311.136 630.151C308.163 631.378 304.978 632.007 301.763 632.002Z" fill="#D7E8F0"/>
<path d="M381.023 627.732C381.023 642.584 375.123 656.828 364.621 667.33C354.119 677.832 339.875 683.732 325.023 683.732H294.833C291.048 683.734 287.419 685.238 284.742 687.914C282.065 690.589 280.558 694.217 280.553 698.002V698.662C280.551 701.463 281.424 704.194 283.05 706.475C284.676 708.755 286.974 710.471 289.623 711.382C291.018 711.867 292.486 712.11 293.963 712.102L289.683 712.222L259.023 713.002H258.693C254.903 713.002 251.268 711.498 248.585 708.821C245.902 706.144 244.391 702.512 244.383 698.722C244.383 694.934 242.879 691.302 240.2 688.624C237.522 685.946 233.89 684.442 230.103 684.442H106.023C91.1708 684.442 76.927 678.542 66.4249 668.04C55.9229 657.538 50.0229 643.294 50.0229 628.442V627.712C50.0242 614.289 52.6693 600.999 57.807 588.598C62.9447 576.198 70.4747 564.931 79.9667 555.441C89.4587 545.951 100.727 538.423 113.128 533.288C125.529 528.153 138.821 525.51 152.243 525.512H278.783C305.894 525.514 331.895 536.284 351.068 555.453C370.24 574.622 381.015 600.62 381.023 627.732Z" stroke="black" stroke-width="4.52" stroke-miterlimit="10"/>
<path d="M697.843 663.248C697.783 663.248 697.753 663.188 697.693 663.188C673.983 656.048 662.443 641.468 657.443 627.488C657.443 627.488 657.443 627.488 657.443 627.428C653.533 616.528 653.623 605.978 655.033 599.678C655.877 596.341 656.413 592.934 656.633 589.498C656.963 579.768 649.823 582.148 629.403 586.218C620.023 588.118 614.023 584.558 611.023 579.498C610.731 579.057 610.477 578.592 610.263 578.108C608.863 575.163 608.283 571.895 608.583 568.648" stroke="black" stroke-width="4.52" stroke-miterlimit="10"/>
<path d="M596.833 624.69C596.473 624.18 596.103 623.69 595.743 623.3C592.583 619.69 588.963 620.11 583.303 622.3C581.883 622.84 578.303 622.69 575.473 621.7C573.093 620.85 571.313 619.38 572.123 617.18C572.331 616.727 572.641 616.329 573.027 616.015C573.414 615.701 573.867 615.48 574.353 615.37C575.296 615.132 576.251 614.941 577.213 614.8C586.923 612.63 584.753 601.39 583.573 594.34C580.713 576.6 584.513 555.72 596.623 541.89C609.963 526.68 631.783 523.51 650.213 530.47C666.423 536.59 681.673 549.87 684.833 567.62C684.833 567.68 684.833 567.74 684.893 567.8C684.953 567.86 684.893 567.95 684.893 568.01C686.763 579.1 684.893 591.12 682.723 602.09C681.423 608.59 681.913 613.9 683.723 618.29C689.393 632.66 708.523 637.67 723.943 644.78C760.433 661.59 790.163 690.33 810.203 725.28C826.023 753 829.773 770.05 828.903 780.57C827.693 794.7 818.113 797 818.113 797C810.013 801.79 797.563 796.64 795.063 787.66C795.026 787.564 795.006 787.462 795.003 787.36C793.003 779.67 789.103 769.79 783.863 758.98" stroke="black" stroke-width="4.52" stroke-miterlimit="10"/>
<path d="M608.543 568.648C608.543 573.998 606.023 579.278 600.543 581.528C594.383 584.068 591.883 590.758 590.983 597.268C589.725 606.801 591.776 616.476 596.793 624.678C601.443 632.398 609.013 640.908 619.733 640.908C639.373 640.908 647.793 631.438 647.793 631.438" stroke="black" stroke-width="4.52" stroke-miterlimit="10"/>
<path d="M628.933 600.34C630.778 600.34 632.273 598.845 632.273 597C632.273 595.156 630.778 593.66 628.933 593.66C627.088 593.66 625.593 595.156 625.593 597C625.593 598.845 627.088 600.34 628.933 600.34Z" fill="black"/>
<path d="M599.553 602.289C601.398 602.289 602.893 600.794 602.893 598.949C602.893 597.105 601.398 595.609 599.553 595.609C597.708 595.609 596.213 597.105 596.213 598.949C596.213 600.794 597.708 602.289 599.553 602.289Z" fill="black"/>
<path d="M613.963 593.859C613.963 593.859 612.293 607.049 612.963 608.859C613.633 610.669 617.813 608.599 617.813 608.599" stroke="black" stroke-width="4.52" stroke-miterlimit="10"/>
<path d="M620.153 620.138C627.303 622.768 634.683 619.418 636.843 612.988" stroke="black" stroke-width="4.52" stroke-miterlimit="10"/>
<path d="M646.22 601.826C651.07 594.96 649.301 585.368 642.269 580.399C635.237 575.431 625.604 576.969 620.754 583.835C615.904 590.7 617.673 600.293 624.705 605.261C631.737 610.229 641.37 608.691 646.22 601.826Z" stroke="black" stroke-width="4.52" stroke-miterlimit="10"/>
<path d="M607.163 603.791C612.013 596.925 610.244 587.332 603.212 582.364C596.18 577.396 586.547 578.934 581.697 585.8C576.847 592.665 578.616 602.258 585.648 607.226C592.68 612.194 602.313 610.656 607.163 603.791Z" stroke="black" stroke-width="4.52" stroke-miterlimit="10"/>
<path d="M594.153 584.192C596.931 584.184 599.608 585.227 601.649 587.111C603.689 588.996 604.941 591.582 605.153 594.352C605.264 595.728 605.097 597.112 604.661 598.421C604.224 599.73 603.528 600.938 602.613 601.972C601.688 603.02 600.562 603.87 599.3 604.471C598.039 605.073 596.669 605.413 595.273 605.472H594.713C591.934 605.48 589.255 604.436 587.214 602.549C585.174 600.662 583.923 598.073 583.713 595.302C583.604 593.926 583.774 592.541 584.212 591.232C584.65 589.923 585.348 588.715 586.263 587.682C587.188 586.637 588.313 585.789 589.573 585.187C590.832 584.586 592.199 584.244 593.593 584.182H594.153V584.192ZM594.153 581.922H593.483C591.797 581.997 590.144 582.411 588.621 583.137C587.098 583.864 585.737 584.889 584.617 586.152C583.498 587.415 582.644 588.89 582.106 590.489C581.567 592.088 581.355 593.779 581.483 595.462C581.754 598.796 583.267 601.906 585.723 604.177C588.179 606.448 591.398 607.713 594.743 607.722H595.413C597.099 607.646 598.752 607.233 600.275 606.506C601.798 605.78 603.159 604.754 604.279 603.492C605.398 602.229 606.252 600.754 606.79 599.155C607.329 597.556 607.541 595.864 607.413 594.182C607.142 590.848 605.629 587.738 603.173 585.467C600.717 583.196 597.498 581.931 594.153 581.922Z" fill="white"/>
<path d="M618.063 593.648L609.863 594.068" stroke="black" stroke-width="4.52" stroke-miterlimit="10"/>
<path opacity="0.53" d="M644.268 600.447C648.376 594.633 646.879 586.509 640.925 582.303C634.97 578.097 626.814 579.4 622.706 585.214C618.598 591.029 620.095 599.152 626.049 603.359C632.004 607.565 640.16 606.262 644.268 600.447Z" fill="white"/>
<path opacity="0.53" d="M605.211 602.412C609.319 596.598 607.822 588.474 601.868 584.268C595.914 580.061 587.757 581.365 583.649 587.179C579.541 592.994 581.038 601.117 586.993 605.323C592.947 609.53 601.103 608.226 605.211 602.412Z" fill="white"/>
<path d="M625.583 640.91L643.793 684.17C643.793 684.17 678.923 693.62 687.463 660.38" stroke="black" stroke-width="4.52" stroke-miterlimit="10"/>
<path d="M280.073 865.117C293.826 860.78 301.025 844.737 296.152 829.283C291.279 813.829 276.18 804.816 262.428 809.152C248.675 813.489 241.476 829.532 246.349 844.986C251.221 860.44 266.32 869.453 280.073 865.117Z" fill="#D7E8F0"/>
<path d="M620.723 952.739C620.333 917.529 614.123 882.739 611.263 868.539" stroke="black" stroke-width="4.52" stroke-miterlimit="10"/>
</g>
</svg>
