<svg width="1000" height="1000" viewBox="0 0 1000 1000" fill="none" xmlns="http://www.w3.org/2000/svg">
<rect width="1000" height="1000" fill="#F5F5F5"/>
<g style="mix-blend-mode:luminosity">
<path d="M791.89 655.191H569.44C564.674 655.191 560.81 659.055 560.81 663.821V820.631C560.81 825.398 564.674 829.261 569.44 829.261H791.89C796.656 829.261 800.52 825.398 800.52 820.631V663.821C800.52 659.055 796.656 655.191 791.89 655.191Z" fill="#3FBDF1"/>
<path d="M780.67 663.34H580.67C575.904 663.34 572.04 667.204 572.04 671.97V812.48C572.04 817.246 575.904 821.11 580.67 821.11H780.67C785.436 821.11 789.3 817.246 789.3 812.48V671.97C789.3 667.204 785.436 663.34 780.67 663.34Z" fill="#3FBDF1"/>
<path d="M898.25 829.261H818C815.705 829.261 813.432 828.809 811.312 827.93C809.192 827.052 807.266 825.764 805.643 824.141C804.021 822.517 802.734 820.59 801.857 818.47C800.98 816.349 800.529 814.076 800.53 811.781V686.651C800.53 685.526 800.754 684.412 801.19 683.375C801.626 682.338 802.264 681.399 803.068 680.612C803.872 679.824 804.825 679.206 805.871 678.792C806.917 678.378 808.035 678.177 809.16 678.201L853.8 678.601C855 678.628 856.18 678.909 857.262 679.426C858.345 679.943 859.305 680.685 860.08 681.601L914.16 745.601C922.722 754.412 927.508 766.215 927.5 778.501V800.001C927.503 803.843 926.748 807.649 925.279 811.199C923.81 814.75 921.656 817.976 918.939 820.693C916.223 823.411 912.997 825.566 909.447 827.036C905.897 828.506 902.092 829.262 898.25 829.261Z" fill="#3FBDF1"/>
<path d="M680.66 792.702C708.534 792.702 731.13 770.105 731.13 742.232C731.13 714.358 708.534 691.762 680.66 691.762C652.786 691.762 630.19 714.358 630.19 742.232C630.19 770.105 652.786 792.702 680.66 792.702Z" fill="#D7E8F0"/>
<path d="M818 741.909V699.379C818 698.119 818.5 696.911 819.391 696.02C820.282 695.129 821.49 694.629 822.75 694.629H846.62C847.349 694.63 848.067 694.799 848.721 695.121C849.374 695.444 849.945 695.911 850.39 696.489L883.1 738.999C883.642 739.702 883.976 740.544 884.065 741.427C884.153 742.311 883.991 743.202 883.599 743.999C883.206 744.795 882.598 745.466 881.844 745.934C881.089 746.403 880.218 746.65 879.33 746.649H822.78C822.155 746.653 821.534 746.533 820.955 746.297C820.376 746.061 819.85 745.712 819.405 745.272C818.961 744.831 818.608 744.308 818.367 743.731C818.126 743.153 818.001 742.534 818 741.909Z" fill="white"/>
<path d="M581.21 828.891V829.231C581.21 839.585 585.323 849.515 592.644 856.836C599.966 864.157 609.896 868.271 620.25 868.271C630.604 868.271 640.534 864.157 647.855 856.836C655.177 849.515 659.29 839.585 659.29 829.231" stroke="#CCDDE2" stroke-width="4.57" stroke-miterlimit="10"/>
<path d="M818 829.23C818 839.583 822.113 849.512 829.433 856.832C836.754 864.153 846.682 868.266 857.035 868.266C867.388 868.266 877.316 864.153 884.637 856.832C891.957 849.512 896.07 839.583 896.07 829.23" fill="#3FBDF1"/>
<path d="M818.1 467.569C850.56 460.629 885.51 473.159 909.28 496.319C933.05 519.479 946.28 552.139 949.69 585.149C955.18 637.679 940.46 698.359 911.5 742.479" stroke="#CCDDE2" stroke-width="4.57" stroke-miterlimit="10"/>
<path d="M527.36 256.39C581.74 236.79 646.93 254.17 697.93 389.39C714.59 433.58 735.75 454.39 765.56 456.99" stroke="#CCDDE2" stroke-width="4.57" stroke-miterlimit="10"/>
<path d="M319.53 321.378C319.53 321.378 380.23 314.378 380.6 388.868L550.52 339.388L577.2 330.998C577.2 330.998 538.92 284.558 494.76 276.568C495.236 281.081 496.13 285.54 497.43 289.888C499.71 297.888 492.15 302.588 481.66 305.568C471.17 308.548 449.93 290.918 446.28 275.368C446.28 275.368 451.52 270.638 432 274.028C412.48 277.418 353.25 291.178 319.53 321.378Z" fill="#2E2E2E"/>
<path d="M55.9999 682.882C57.6567 683.775 59.5079 684.245 61.3899 684.252C63.086 684.25 64.7599 683.866 66.2882 683.131C67.8164 682.395 69.16 681.326 70.2199 680.002L108.52 633.052L139.43 594.262L114.13 580.072C111.508 578.592 108.406 578.214 105.505 579.02C102.604 579.827 100.142 581.751 98.6599 584.372L51.4899 667.202C50.7407 668.524 50.2628 669.982 50.0842 671.491C49.9057 673 50.0301 674.529 50.4501 675.99C50.8701 677.45 51.5773 678.812 52.5303 679.995C53.4833 681.179 54.6628 682.16 55.9999 682.882Z" fill="#2E2E2E"/>
<path d="M639 904.391L670.88 935.751C673.637 938.472 677.355 939.999 681.23 940.001H761C764.279 940.021 767.439 938.776 769.823 936.525C772.207 934.274 773.632 931.191 773.801 927.917C773.969 924.642 772.869 921.429 770.729 918.945C768.589 916.461 765.573 914.898 762.31 914.581L718.05 910.001L639 904.391Z" fill="#2E2E2E"/>
<path d="M492.12 273.001V275.161V275.711C509.758 280.134 526.366 287.945 541.02 298.711C543.39 300.451 545.71 302.211 548.02 304.071C548.08 296.611 547.44 289.121 545.02 282.071C543.065 276.013 539.393 270.652 534.45 266.641C530.1 263.171 524.95 260.941 519.77 258.931C514.59 256.921 509.51 255.161 504.77 252.451C500.77 250.257 497.275 247.249 494.51 243.621C493.543 242.308 492.941 240.762 492.765 239.141C492.59 237.52 492.847 235.881 493.51 234.391C493.044 234.36 492.583 234.269 492.14 234.121L492.12 273.001Z" fill="#3FBDF1"/>
<path d="M492.12 273.001V275.161V275.711C509.758 280.134 526.366 287.945 541.02 298.711C543.39 300.451 545.71 302.211 548.02 304.071C548.08 296.611 547.44 289.121 545.02 282.071C543.065 276.013 539.393 270.652 534.45 266.641C530.1 263.171 524.95 260.941 519.77 258.931C514.59 256.921 509.51 255.161 504.77 252.451C500.77 250.257 497.275 247.249 494.51 243.621C493.543 242.308 492.941 240.762 492.765 239.141C492.59 237.52 492.847 235.881 493.51 234.391C493.044 234.36 492.583 234.269 492.14 234.121L492.12 273.001Z" fill="#3FBDF1"/>
<path d="M248.47 441.5C255.091 446.251 262.459 449.864 270.27 452.19C273.62 453.19 265.7 456.93 269.14 457.6C255.53 425.48 265.24 376.1 308.3 331.04C315.63 323.36 332.49 313.63 340.8 306.87C354.17 296 368.8 294.59 382.8 288.07C389.057 285.181 395.482 282.67 402.04 280.55C413.698 276.676 425.731 274.035 437.94 272.67C440.71 272.33 443.45 272.09 446.22 271.94C445.543 267.179 445.679 262.337 446.62 257.62C449.17 244.68 453.62 237.25 461.72 227.05C466.8 220.63 474.72 205.28 464.15 199.99C457.49 196.67 456.88 189.88 460.01 185.74C462.66 182.2 468.01 180.59 474.63 184.74C479.2 187.66 484.63 187.85 489.85 186.42C493.919 184.05 497.448 180.855 500.21 177.04C507.88 166.04 508.15 149.39 496.16 141.32C489.61 136.91 481.27 135.84 473.44 136.69C469.941 137.095 466.495 137.869 463.16 139C463.146 138.994 463.13 138.991 463.115 138.991C463.099 138.991 463.084 138.994 463.07 139C448.91 146.64 438.77 160.77 433.9 176.69C431.04 186.1 427.81 195.42 424.03 204.55C420.93 212.04 418.77 221.15 411.85 226.26C408.965 228.403 405.686 229.956 402.2 230.83C389.14 239.11 371.02 234.33 356.74 232.57C345.321 231.009 333.695 232.185 322.82 236C310.64 242.15 300.17 252 291.67 264.77C277.67 285.93 292.49 316.44 269.02 333.13C261.95 338.13 253.76 341.2 246.02 345.13C234.94 350.77 226.02 358.77 222.73 371.13C216.16 395.89 227.79 426.49 248.47 441.5Z" fill="#3FBDF1"/>
<path d="M538 622.621L718.55 909.711L641.55 906.071L612.83 879.871H580C580 879.871 490.52 748.651 470 726.411C449.48 704.171 470 647.801 470 647.801L538 622.621Z" fill="white"/>
<path d="M822.46 939.988H267.05" stroke="black" stroke-width="4.57" stroke-miterlimit="10"/>
<path d="M512.49 167C513.916 169.956 515.136 173.006 516.14 176.13C517.6 181.22 516.02 184.36 518.24 189.2C519 190.87 520.1 193.7 521.24 196.57C521.57 195.9 521.88 195.35 522.06 194.92C530.77 175.53 519.32 166.18 513.81 162.98C513.469 164.351 513.028 165.695 512.49 167Z" fill="#3FBDF1"/>
<path d="M512.49 167C513.916 169.956 515.136 173.006 516.14 176.13C517.6 181.22 516.02 184.36 518.24 189.2C519 190.87 520.1 193.7 521.24 196.57C521.57 195.9 521.88 195.35 522.06 194.92C530.77 175.53 519.32 166.18 513.81 162.98C513.469 164.351 513.028 165.695 512.49 167Z" fill="#3FBDF1"/>
<path d="M430.15 686.438C420.84 719.168 405.82 752.358 393.37 773.338C384.369 788.476 369.974 799.648 353.076 804.612C336.178 809.576 318.028 807.963 302.27 800.098L165.62 732.288V701.598L108.52 633.088L70.2201 679.998C69.1563 681.315 67.8109 682.377 66.2829 683.105C64.7548 683.834 63.0829 684.211 61.3901 684.208C59.4036 684.197 57.4543 683.668 55.7348 682.673C54.0153 681.678 52.5851 680.252 51.5854 678.535C50.5857 676.819 50.051 674.871 50.0343 672.884C50.0176 670.898 50.5194 668.941 51.4901 667.208L98.6601 584.418C100.143 581.798 102.605 579.873 105.505 579.067C108.406 578.26 111.508 578.639 114.13 580.118L139.43 594.308L284.43 675.518C286.842 676.868 289.539 677.625 292.301 677.729C295.062 677.832 297.809 677.278 300.314 676.112C302.82 674.946 305.013 673.202 306.712 671.023C308.412 668.844 309.569 666.292 310.09 663.578L327.27 573.578" stroke="black" stroke-width="4.57" stroke-miterlimit="10"/>
<path d="M367.26 634.371L404.41 664.591C443.51 695.438 477.538 732.217 505.26 773.591L579.48 880.161H699.28" stroke="black" stroke-width="4.57" stroke-miterlimit="10"/>
<path d="M614.43 880.18L639 904.39L670.88 935.75C673.637 938.472 677.356 939.999 681.23 940H761C764.279 940.02 767.439 938.775 769.823 936.525C772.207 934.274 773.632 931.191 773.801 927.916C773.969 924.642 772.869 921.428 770.729 918.945C768.589 916.461 765.573 914.898 762.31 914.58L718.05 910L504.39 570.25C493.39 552.71 483.59 523.84 492.12 504.93C524.61 433 521.8 363.32 521.8 363.32" stroke="black" stroke-width="4.57" stroke-miterlimit="10"/>
<path d="M492.12 228.002V272.702V274.862V275.412C496.71 282.112 499.03 291.612 494.64 298.732C488.77 308.262 475.8 306.682 467.57 301.352C465.152 299.783 462.844 298.052 460.66 296.172C453.346 289.815 448.615 281 447.36 271.392C446.685 266.634 446.817 261.796 447.75 257.082C450.32 244.152 454.75 236.722 462.88 226.502C467.96 220.092 475.88 204.732 465.29 199.442C452.9 193.262 461.48 175.172 475.77 184.212C486.85 191.212 502.77 182.482 509.35 173.072C517.02 162.072 517.3 145.422 505.3 137.352C498.75 132.942 490.41 131.872 482.59 132.722C458.74 135.342 441.78 153.982 434.99 176.142C432.13 185.552 428.9 194.872 425.13 204.002C422.02 211.502 419.86 220.602 412.95 225.712C399.8 235.552 380.74 230.402 365.85 228.582C334.85 224.772 309.85 238.502 292.77 264.202C278.77 285.362 293.59 315.872 270.11 332.562C263.05 337.562 254.86 340.632 247.11 344.562C236.02 350.192 227.11 358.202 223.81 370.562C217.24 395.402 228.87 426.012 249.54 441.022C259.01 447.902 270.09 452.022 281.6 454.262" stroke="black" stroke-width="4.57" stroke-miterlimit="10"/>
<path d="M553.31 309.819C553.37 309.249 553.4 308.699 553.42 308.159C553.94 298.349 553.88 288.159 550.68 278.769C548.721 272.716 545.05 267.36 540.11 263.349C535.74 259.879 530.6 257.629 525.44 255.629C520.28 253.629 515.17 251.869 510.44 249.149C506.433 246.97 502.938 243.96 500.19 240.319C499.218 239.013 498.609 237.473 498.425 235.856C498.24 234.238 498.487 232.601 499.14 231.109" stroke="black" stroke-width="4.57" stroke-miterlimit="10"/>
<path d="M165.63 701.609V608.969" stroke="black" stroke-width="4.57" stroke-miterlimit="10"/>
<path d="M482.51 217.998C486.1 223.128 490.97 228.668 497.11 230.678C505.06 233.258 510.41 226.518 513.26 219.948C514.97 216.038 516.14 211.878 517.52 207.838C517.97 206.508 518.24 205.838 519.77 205.758C521.3 205.678 522.89 205.998 524.45 205.998C524.569 206.004 524.686 205.976 524.789 205.917C524.892 205.858 524.976 205.771 525.031 205.665C525.086 205.56 525.109 205.441 525.098 205.323C525.087 205.205 525.043 205.092 524.97 204.998C522.87 201.808 519.74 193.088 518.15 189.598C515.95 184.758 517.54 181.598 516.06 176.538C515.05 173.416 513.837 170.363 512.43 167.398" stroke="black" stroke-width="4.57" stroke-miterlimit="10"/>
<path d="M514.77 158.059C514.77 158.059 536.44 166.359 525.25 191.339C524.56 192.859 522.86 196.009 522.06 197.439" stroke="black" stroke-width="4.57" stroke-miterlimit="10"/>
<path d="M513.57 219.19C511.836 219.425 510.076 219.021 508.618 218.053C507.161 217.085 506.105 215.619 505.65 213.93" stroke="black" stroke-width="4.57" stroke-miterlimit="10"/>
<path d="M517.24 185.73C512.75 182.08 507.83 186.73 504.83 190.14" stroke="black" stroke-width="4.57" stroke-miterlimit="10"/>
<path d="M492.12 275.41C509.766 279.834 526.384 287.646 541.05 298.41C545.31 301.49 549.42 304.77 553.41 308.18C569.15 321.54 583 337 596.46 352.63" stroke="black" stroke-width="4.57" stroke-miterlimit="10"/>
<path d="M616.65 500.081C616.569 500.032 616.495 499.971 616.43 499.901C598.77 482.241 580.98 464.711 563.27 447.111C548.43 432.371 529.13 417.281 520.07 397.941" stroke="black" stroke-width="4.57" stroke-miterlimit="10"/>
<path d="M409.58 627.228C411.02 626.768 412.39 626.308 413.69 625.828C413.713 625.836 413.737 625.836 413.76 625.828" stroke="black" stroke-width="4.57" stroke-miterlimit="10"/>
<path d="M275.15 419.571L380.6 388.871L574.25 332.481C583.553 329.802 593.539 330.916 602.023 335.578C610.508 340.24 616.802 348.071 619.53 357.361L661.12 500.231C663.8 509.533 662.691 519.517 658.035 528.004C653.38 536.492 645.555 542.792 636.27 545.531L429.89 605.611L410.19 611.331L390.19 617.181L370.49 622.931L354.49 627.561L297.69 644.101C288.387 646.784 278.399 645.673 269.913 641.01C261.426 636.348 255.133 628.513 252.41 619.221L210.82 476.351C208.138 467.054 209.245 457.073 213.899 448.59C218.554 440.107 226.378 433.812 235.66 431.081L237.15 430.651L238.4 430.281L264.92 422.551L275.15 419.571Z" fill="white"/>
<path d="M291 423.299L388.7 394.859L568.14 342.609C576.766 340.111 586.03 341.134 593.903 345.455C601.776 349.775 607.615 357.041 610.14 365.659L648.66 497.999C651.141 506.618 650.116 515.868 645.808 523.735C641.5 531.601 634.258 537.447 625.66 539.999L434.41 595.679L416.16 600.999L397.59 606.409L379.34 611.749L364.5 615.999L303.77 633.999C295.144 636.5 285.878 635.478 278.005 631.157C270.131 626.836 264.293 619.569 261.77 610.949L223.27 478.539C220.772 469.92 221.79 460.662 226.1 452.791C230.411 444.92 237.663 439.077 246.27 436.539L247.65 436.139L248.81 435.809L281.52 426.009L291 423.299Z" fill="#3FBDF1"/>
<path d="M301.58 427.998L392.17 401.628L565.17 350.978C573.162 348.678 581.74 349.634 589.029 353.638C596.318 357.642 601.725 364.369 604.07 372.348L639.81 495.098C642.112 503.09 641.159 511.668 637.159 518.96C633.159 526.252 626.437 531.665 618.46 534.018L434.52 587.868L417.6 592.788L400.39 597.788L383.46 602.728L369.75 606.728L307.94 624.928C299.942 627.25 291.351 626.303 284.05 622.297C276.75 618.29 271.337 611.551 269 603.558L233.25 480.818C230.946 472.829 231.898 464.252 235.898 456.963C239.899 449.674 246.623 444.265 254.6 441.918L261.38 439.988L262.46 439.668L292.79 430.588L301.58 427.998Z" fill="#3FBDF1"/>
<path d="M436.23 501.051L273.42 547.001C272.552 547.246 271.644 547.318 270.748 547.212C269.853 547.106 268.987 546.824 268.2 546.383C267.413 545.942 266.721 545.35 266.163 544.641C265.606 543.932 265.193 543.12 264.95 542.251C264.772 541.651 264.681 541.028 264.68 540.401C264.687 538.907 265.177 537.455 266.079 536.263C266.98 535.072 268.244 534.204 269.68 533.791L432.49 487.871C431.834 490.113 431.803 492.492 432.4 494.751C433.047 497.175 434.376 499.361 436.23 501.051Z" fill="#3FBDF1"/>
<path d="M474.26 485.091C474.258 486.59 473.77 488.047 472.868 489.245C471.966 490.442 470.7 491.315 469.26 491.731L457.51 495.051C458.179 492.72 458.186 490.249 457.531 487.914C456.876 485.579 455.584 483.473 453.8 481.831L465.55 478.521C467.302 478.034 469.175 478.26 470.76 479.15C472.345 480.04 473.514 481.522 474.01 483.271C474.186 483.861 474.271 484.475 474.26 485.091Z" fill="#D7E8F0"/>
<path d="M481.66 511.312C481.655 512.807 481.165 514.259 480.263 515.451C479.361 516.643 478.097 517.51 476.66 517.922L314.86 563.562C315.83 561.319 316.145 558.848 315.768 556.434C315.391 554.02 314.337 551.762 312.73 549.922L472.92 504.702C474.672 504.218 476.543 504.446 478.128 505.335C479.712 506.225 480.881 507.705 481.38 509.452C481.566 510.054 481.66 510.681 481.66 511.312Z" fill="#D7E8F0"/>
<path d="M295.4 569L280.82 573.11C279.931 573.46 278.979 573.621 278.024 573.581C277.07 573.542 276.134 573.303 275.277 572.88C274.42 572.457 273.661 571.86 273.049 571.126C272.437 570.393 271.985 569.539 271.722 568.621C271.459 567.702 271.392 566.739 271.523 565.793C271.655 564.846 271.983 563.938 272.487 563.126C272.991 562.314 273.659 561.617 274.448 561.078C275.237 560.54 276.13 560.173 277.07 560L290.07 556.34C289.79 558.135 289.875 559.968 290.32 561.73C291.099 564.678 292.899 567.254 295.4 569Z" fill="#3FBDF1"/>
<path d="M440.34 556.768L289.28 599.398C287.529 599.874 285.66 599.643 284.078 598.754C282.496 597.866 281.326 596.391 280.82 594.648C280.644 594.055 280.56 593.438 280.57 592.818C280.573 591.32 281.062 589.863 281.964 588.666C282.865 587.468 284.131 586.596 285.57 586.178L436.41 543.648C435.779 545.984 435.813 548.45 436.507 550.768C437.201 553.086 438.529 555.164 440.34 556.768Z" fill="#3FBDF1"/>
<path d="M490.15 537.521C490.152 539.017 489.664 540.473 488.761 541.666C487.858 542.86 486.59 543.725 485.15 544.131L461.46 550.801L440.36 556.801C438.549 555.196 437.221 553.118 436.527 550.8C435.833 548.482 435.799 546.017 436.43 543.681L457.93 537.621L481.43 530.981C483.179 530.487 485.052 530.707 486.64 531.592C488.227 532.476 489.4 533.954 489.9 535.701C490.067 536.293 490.152 536.906 490.15 537.521Z" fill="#D7E8F0"/>
<path d="M457.51 495.049C456.725 497.793 455.058 500.203 452.768 501.906C450.477 503.609 447.689 504.511 444.835 504.473C441.981 504.434 439.218 503.457 436.975 501.692C434.731 499.928 433.13 497.473 432.42 494.709C431.989 493.055 431.889 491.333 432.125 489.641C432.36 487.949 432.927 486.32 433.792 484.847C434.658 483.374 435.805 482.086 437.169 481.057C438.533 480.027 440.086 479.277 441.74 478.849C443.841 478.302 446.045 478.29 448.152 478.814C450.258 479.338 452.2 480.381 453.8 481.849C455.584 483.491 456.876 485.597 457.531 487.932C458.186 490.267 458.179 492.738 457.51 495.069V495.049Z" fill="white"/>
<g opacity="0.72">
<path opacity="0.72" d="M450.53 488.812C450.69 490.387 450.399 491.976 449.69 493.392C449.349 494.092 448.948 494.762 448.49 495.392C448.24 495.722 446.93 497.612 446.55 497.532C443.97 497.072 440.28 495.062 439.09 492.372C438.912 491.949 438.788 491.506 438.72 491.052C438.628 490.393 438.738 489.722 439.034 489.127C439.33 488.532 439.799 488.039 440.379 487.715C440.96 487.391 441.624 487.25 442.287 487.31C442.949 487.37 443.577 487.628 444.09 488.052C444.367 487.375 444.856 486.806 445.485 486.432C446.113 486.057 446.847 485.898 447.574 485.977C448.301 486.056 448.983 486.369 449.516 486.87C450.049 487.371 450.405 488.031 450.53 488.752V488.812Z" fill="#3FBDF1"/>
</g>
<path d="M314.86 563.558C313.793 566.054 311.972 568.152 309.652 569.56C307.333 570.968 304.63 571.615 301.924 571.41C299.219 571.205 296.645 570.158 294.564 568.417C292.483 566.675 290.999 564.326 290.32 561.698C289.875 559.937 289.79 558.104 290.07 556.308C290.49 553.833 291.616 551.531 293.312 549.68C295.007 547.828 297.201 546.504 299.63 545.868C301.976 545.246 304.451 545.299 306.768 546.021C309.086 546.742 311.152 548.104 312.73 549.948C314.338 551.788 315.391 554.046 315.768 556.46C316.145 558.874 315.83 561.346 314.86 563.588V563.558Z" fill="white"/>
<g opacity="0.72">
<path opacity="0.72" d="M308.44 555.791C308.597 557.368 308.303 558.956 307.59 560.371C307.258 561.077 306.856 561.747 306.39 562.371C306.14 562.701 304.83 564.591 304.46 564.511C301.87 564.051 298.19 562.041 297 559.341C296.817 558.92 296.692 558.476 296.63 558.021C296.538 557.363 296.647 556.692 296.943 556.096C297.239 555.501 297.708 555.009 298.289 554.685C298.869 554.36 299.534 554.219 300.197 554.279C300.859 554.339 301.487 554.598 302 555.021C302.197 554.537 302.504 554.104 302.896 553.757C303.288 553.41 303.755 553.158 304.26 553.021C304.717 552.914 305.192 552.901 305.654 552.983C306.117 553.066 306.558 553.243 306.949 553.502C307.341 553.762 307.675 554.099 307.932 554.492C308.188 554.886 308.361 555.328 308.44 555.791Z" fill="#3FBDF1"/>
</g>
<path d="M461.44 550.799C460.53 553.792 458.567 556.355 455.914 558.013C453.262 559.671 450.098 560.313 447.009 559.82C443.919 559.327 441.113 557.732 439.108 555.33C437.104 552.929 436.036 549.882 436.103 546.755C436.17 543.627 437.367 540.629 439.473 538.315C441.579 536.002 444.451 534.529 447.558 534.168C450.666 533.808 453.799 534.585 456.378 536.355C458.958 538.125 460.809 540.77 461.59 543.799C462.181 546.102 462.129 548.523 461.44 550.799Z" fill="white"/>
<g opacity="0.72">
<path opacity="0.72" d="M454.52 544.439C454.671 546.015 454.377 547.602 453.67 549.019C453.333 549.722 452.931 550.391 452.47 551.019C452.22 551.349 450.91 553.239 450.54 553.159C447.95 552.699 444.26 550.689 443.07 547.999C442.891 547.573 442.767 547.126 442.7 546.669C442.608 546.011 442.717 545.34 443.014 544.744C443.31 544.149 443.779 543.657 444.359 543.332C444.939 543.008 445.604 542.867 446.267 542.927C446.929 542.987 447.557 543.246 448.07 543.669C448.351 542.994 448.842 542.428 449.472 542.056C450.101 541.684 450.834 541.526 451.561 541.606C452.288 541.686 452.969 542 453.503 542.5C454.036 543 454.393 543.659 454.52 544.379V544.439Z" fill="#3FBDF1"/>
</g>
<path d="M434.61 585.79C425.94 586.27 416.61 573.79 413.76 570.68C413.444 570.349 413.084 570.063 412.69 569.83L404.94 563.56L406.24 573.42C408.31 578.17 419.24 588.53 427.03 600.42C434.82 612.31 427.4 614.91 423.23 616.42C419.06 617.93 414.7 610.05 416.4 618.61C418.1 627.17 408 627.29 401.7 626.22C395.4 625.15 393.14 618.22 394.57 623.66C396 629.1 391.28 633.07 387.02 633.25C383.79 633.41 377.58 629.05 374.78 626.95C374.14 630.39 371.83 636.85 363.78 633.41C353.09 628.84 342.71 601.53 334.78 573.58C326.85 545.63 275.49 494.65 268 440.67C268 440.58 268 440.45 268 440.36C267.6 436.28 267.397 432.17 267.39 428.03C267.392 420.161 268.156 412.311 269.67 404.59C270.753 398.972 272.199 393.43 274 388L358.8 404.84C358.22 405.48 357.64 406.12 357.06 406.79C337.21 429.84 348.81 459.07 363.91 480.53C379.23 502.37 396.86 523.95 417.01 541.53C422.926 546.679 428.455 552.258 433.55 558.22L432.45 558.83C433.647 561.161 434.983 563.419 436.45 565.59C442.44 573.85 443.32 585.3 434.61 585.79Z" fill="white"/>
<path d="M380.6 388.871L574.25 332.481C583.553 329.802 593.539 330.916 602.024 335.578C610.508 340.24 616.802 348.071 619.53 357.361L661.12 500.231C663.8 509.533 662.691 519.517 658.035 528.004C653.38 536.492 645.555 542.792 636.27 545.531L429.89 605.611" stroke="black" stroke-width="4.57" stroke-miterlimit="10"/>
<path d="M354.44 627.561L297.69 644.101C288.387 646.785 278.399 645.674 269.913 641.011C261.426 636.348 255.133 628.513 252.41 619.221L210.82 476.351C208.138 467.054 209.245 457.073 213.899 448.591C218.554 440.108 226.378 433.812 235.66 431.081L237.15 430.651L238.4 430.281L264.92 422.551" stroke="black" stroke-width="4.57" stroke-miterlimit="10"/>
<path d="M410.19 611.328H410.16" stroke="black" stroke-width="4.57" stroke-miterlimit="10"/>
<path d="M370.43 622.93H370.4" stroke="black" stroke-width="4.57" stroke-miterlimit="10"/>
<path d="M381.22 568.16C384.01 583.38 396.69 599.87 410.14 611.29C414.05 614.61 422.69 618.65 427.38 614.86C437.5 606.7 420.2 593.26 415.43 587.86C409.64 581.3 404.96 573.61 403.22 564.94C403.068 564.405 403.1 563.835 403.31 563.32C403.513 563.04 403.8 562.833 404.13 562.731C404.46 562.628 404.814 562.635 405.14 562.75C405.785 562.988 406.367 563.371 406.84 563.87C412.32 568.87 417.21 574.4 422.17 579.87C425.68 583.78 434.81 588.63 439.29 583.65C449.01 572.84 421.5 547.65 414.46 541.47C394.33 523.87 376.67 502.29 361.35 480.47C346.25 459.01 334.65 429.78 354.5 406.73C364.86 394.73 380.2 389.49 393.9 382.4C416 371 420.55 352 420.55 352" stroke="black" stroke-width="4.57" stroke-miterlimit="10"/>
<path d="M368.38 583.629C368.38 583.629 379.82 616.239 404.12 626.389C405.563 627.031 407.132 627.34 408.711 627.293C410.289 627.246 411.837 626.845 413.24 626.119C416.24 624.439 418.69 621.119 414.48 614.459" stroke="black" stroke-width="4.57" stroke-miterlimit="10"/>
<path d="M352.54 591.25C357 603.35 362.92 616 372.44 625C376.78 629.09 382.28 633.14 388.44 633.4C395.86 633.71 396.44 626.23 393.44 621.14C392.791 620.049 392.012 619.042 391.12 618.14" stroke="black" stroke-width="4.57" stroke-miterlimit="10"/>
<path d="M372.44 625.002C372.44 625.002 371.9 638.002 361.21 633.412C350.52 628.822 340.11 601.522 332.21 573.562C324.31 545.602 272.66 494.472 265.33 440.362L265.41 441.022C265.41 440.902 265.41 440.812 265.41 440.692C264.161 428.641 264.713 416.47 267.05 404.582C290.2 287.422 446.28 271.922 446.28 271.922" stroke="black" stroke-width="4.57" stroke-miterlimit="10"/>
<path d="M677.53 519.348C673.21 532.098 662.53 540.228 649.37 542.208C643.73 543.038 637.65 543.798 632.37 541.208C628.5 539.318 624.69 534.908 625.85 530.278C624.129 530.3 622.412 530.105 620.74 529.698C618.45 529.148 616.08 528.058 615.07 525.948C614.06 523.838 614.77 520.898 616.41 519.008C618.197 517.246 620.397 515.96 622.81 515.268C623.396 515.052 623.993 514.868 624.6 514.718C622.647 514.735 620.695 514.611 618.76 514.348C615.04 513.868 610.87 512.278 609.76 508.718C609.452 507.508 609.455 506.24 609.77 505.032C610.085 503.823 610.701 502.714 611.56 501.808C613.31 500.01 615.504 498.706 617.92 498.028C618.17 497.968 618.38 497.878 618.62 497.818C614.21 497.758 609.7 496.878 607.75 492.698C607.123 491.213 606.946 489.577 607.239 487.991C607.532 486.406 608.283 484.941 609.4 483.778C613.3 479.398 619.14 478.778 624.65 478.358C630.16 477.938 636.86 477.748 643.35 477.628C644.76 477.591 646.142 477.231 647.392 476.578C648.641 475.924 649.725 474.993 650.559 473.856C651.394 472.72 651.958 471.407 652.207 470.019C652.457 468.631 652.386 467.205 652 465.848C649.47 456.848 648.4 447.028 653.73 444.628C661.68 441.028 667.16 450.838 669.44 456.868C676.41 475.348 684.17 499.828 677.53 519.348Z" fill="white"/>
<path d="M644 511.922C637.57 513.292 631.06 514.692 624.54 514.752C623.934 514.903 623.336 515.087 622.75 515.302C620.337 515.993 618.137 517.279 616.35 519.042C614.71 520.932 613.92 523.732 615.01 525.982C616.1 528.232 618.39 529.182 620.68 529.732C622.352 530.138 624.069 530.333 625.79 530.312C629.309 530.24 632.812 529.801 636.24 529.002C636.82 528.882 643.92 528.062 644.47 527.932" stroke="black" stroke-width="4.57" stroke-miterlimit="10"/>
<path d="M618.55 497.852C618.31 497.912 618.1 498.002 617.85 498.062C615.434 498.739 613.24 500.043 611.49 501.842C610.631 502.747 610.015 503.856 609.7 505.065C609.385 506.273 609.382 507.542 609.69 508.752C610.85 512.312 615.02 513.902 618.69 514.382C620.625 514.644 622.577 514.768 624.53 514.752" stroke="black" stroke-width="4.57" stroke-miterlimit="10"/>
<path d="M649.4 497.181C648.91 497.181 648.45 497.181 647.97 497.181L624.73 497.701C622.91 497.701 620.73 497.881 618.55 497.821C614.14 497.761 609.63 496.881 607.68 492.701C607.053 491.216 606.876 489.579 607.169 487.994C607.462 486.409 608.213 484.944 609.33 483.781C613.23 479.401 619.07 478.781 624.58 478.361C630.09 477.941 636.8 477.771 643.29 477.631C644.704 477.599 646.093 477.242 647.348 476.589C648.603 475.937 649.692 475.004 650.53 473.865C651.369 472.725 651.934 471.408 652.184 470.015C652.434 468.622 652.36 467.191 651.97 465.831C649.44 456.831 648.35 447.001 653.69 444.601C661.64 441.001 667.12 450.811 669.4 456.841C676.4 475.321 684.17 499.841 677.53 519.321C673.2 532.071 662.53 540.221 649.38 542.181C643.75 543.021 637.65 543.781 632.38 541.181C628.53 539.301 624.71 534.901 625.86 530.271" stroke="black" stroke-width="4.57" stroke-miterlimit="10"/>
<g opacity="0.54">
<path opacity="0.54" d="M465.23 444.791C465.055 443.636 464.791 442.496 464.44 441.381L460.51 428.671C459.31 424.781 457.98 420.671 454.92 417.991C449.25 412.991 440.51 414.861 433.26 417.041L415.47 422.381C411.38 423.611 407.23 424.871 403.66 427.201C400.09 429.531 397.11 433.151 396.55 437.381C396.13 440.501 397.05 443.621 397.96 446.641L401.62 458.841C402.83 462.841 404.17 467.061 407.32 469.841C412.93 474.721 421.5 472.891 428.64 470.781L446.84 465.411C457.82 462.131 467 456.261 465.23 444.791Z" fill="white"/>
<path opacity="0.54" d="M440.27 446.282C441.004 445.51 441.52 444.555 441.763 443.518C442.006 442.48 441.968 441.396 441.654 440.377C441.339 439.359 440.759 438.443 439.972 437.723C439.186 437.003 438.222 436.506 437.18 436.282L431.54 435.002L425.91 433.722C424.874 433.472 423.79 433.502 422.77 433.81C421.749 434.118 420.829 434.692 420.104 435.473C419.379 436.254 418.875 437.214 418.644 438.254C418.413 439.295 418.464 440.378 418.79 441.392L420.5 446.912L422.2 452.432C422.501 453.456 423.069 454.381 423.846 455.112C424.624 455.843 425.582 456.353 426.622 456.591C427.662 456.828 428.747 456.784 429.764 456.463C430.782 456.141 431.695 455.554 432.41 454.762L436.34 450.522L440.27 446.282Z" fill="#3FBDF1"/>
</g>
<path d="M843.05 868.27H794.02" stroke="#CCDDE2" stroke-width="4.57" stroke-miterlimit="10"/>
<path d="M785.67 561.728C815.653 561.728 839.96 537.422 839.96 507.438C839.96 477.455 815.653 453.148 785.67 453.148C755.686 453.148 731.38 477.455 731.38 507.438C731.38 537.422 755.686 561.728 785.67 561.728Z" fill="#3FBDF1"/>
<path d="M776.88 531.78C776.248 531.78 775.623 531.656 775.039 531.414C774.456 531.172 773.926 530.817 773.48 530.37L759.48 516.37C758.578 515.469 758.071 514.247 758.07 512.973C758.069 511.699 758.575 510.476 759.475 509.575C760.376 508.673 761.597 508.166 762.872 508.165C764.146 508.164 765.368 508.669 766.27 509.57L776.91 520.21L805.1 492C806.001 491.098 807.222 490.591 808.497 490.59C809.771 490.589 810.993 491.094 811.895 491.995C812.797 492.895 813.304 494.117 813.305 495.391C813.306 496.665 812.801 497.888 811.9 498.79L780.27 530.42C779.364 531.303 778.145 531.792 776.88 531.78Z" fill="white"/>
</g>
</svg>
