<svg width="1000" height="1000" viewBox="0 0 1000 1000" fill="none" xmlns="http://www.w3.org/2000/svg">
<rect width="1000" height="1000" fill="#F5F5F5"/>
<g style="mix-blend-mode:luminosity">
<path d="M317.35 656.54C328.77 630.54 335.98 600.54 336.66 565.75C339.96 395.59 532.36 264.28 745.79 408.61C959.22 552.94 770.59 950 770.59 950" stroke="#CCDDE2" stroke-width="4.47" stroke-miterlimit="10"/>
<path d="M168.13 950.001C158.7 942.591 86.8099 872.301 129.99 832.071C148.44 814.901 188.15 794.851 227.93 764.281" stroke="#CCDDE2" stroke-width="4.47" stroke-miterlimit="10"/>
<path d="M682.56 523.5C683.336 527.527 685.37 531.204 688.37 534" stroke="#CCDDE2" stroke-width="4.47" stroke-miterlimit="10"/>
<path d="M514.999 600.762C513.519 601.152 512.269 601.432 511.279 601.662C510.539 601.792 509.929 601.922 509.509 601.982H509.419L508.839 602.082C508.839 602.082 508.779 602.012 508.739 602.012C498.739 594.672 501.809 581.012 501.809 581.012C531.709 585.722 537.909 561.502 537.909 561.502C537.519 549.892 535.309 544.432 530.209 541.292C524.879 537.952 516.379 537.092 503.389 534.292L501.239 533.812C481.919 529.422 472.909 509.592 469.349 498.592C468.52 496.155 467.852 493.666 467.349 491.142C445.469 499.362 431.769 511.002 423.879 519.732C420.759 457.842 482.879 466.732 482.879 466.732C493.332 466.882 503.721 468.401 513.779 471.252C516.059 472.252 518.239 473.252 520.319 474.252C521.319 474.762 522.379 475.312 523.319 475.882C524.259 476.452 525.319 477.012 526.239 477.582C526.909 477.972 527.589 478.392 528.239 478.832C541.904 487.504 552.827 499.877 559.739 514.512C559.837 514.71 559.924 514.914 559.999 515.122C560.314 515.799 560.591 516.494 560.829 517.202C574.889 578.722 531.509 596.332 514.999 600.762Z" fill="#3FBDF1"/>
<path d="M514.999 600.759C510.639 593.509 512.659 584.759 512.659 584.759C542.529 589.479 548.749 565.259 548.749 565.259C548.109 547.449 543.299 544.109 530.209 541.259C525.359 540.169 519.399 539.169 512.079 537.539C509.039 536.856 506.113 535.742 503.389 534.229C483.499 523.329 478.139 494.839 478.139 494.839C475.059 495.989 472.139 497.239 469.349 498.529C468.52 496.092 467.852 493.604 467.349 491.079C445.469 499.299 431.769 510.939 423.879 519.669C420.759 457.779 482.879 466.669 482.879 466.669C493.332 466.819 503.721 468.339 513.779 471.189C516.059 472.189 518.239 473.189 520.319 474.189C521.319 474.699 522.379 475.249 523.319 475.819C524.259 476.389 525.319 476.949 526.239 477.519C526.909 477.909 527.589 478.329 528.239 478.769C541.904 487.442 552.827 499.815 559.739 514.449C559.837 514.648 559.924 514.851 559.999 515.059C560.314 515.737 560.591 516.431 560.829 517.139C574.889 578.719 531.509 596.329 514.999 600.759Z" fill="#3FBDF1"/>
<path d="M619.829 874.671C624.449 904.831 630.099 934.501 635.999 950.001H370.789C338.859 859.341 353.999 760.301 353.999 760.301L306.899 761.781C335.229 712.081 325.149 670.061 320.369 656.041C357.369 649.751 394.369 644.811 431.759 644.391C430.759 665.791 454.119 690.391 487.809 683.921C501.469 681.321 518.119 675.921 518.479 651.991L527.269 653.531C539.429 655.531 550.429 657.671 560.859 660.081C587.859 666.301 611.059 674.081 639.969 683.921C599.969 713.531 619.849 781.921 619.849 781.921L620.849 784.201L608.079 781.921C608.079 781.921 612.809 828.831 619.829 874.671Z" fill="#353642"/>
<path d="M344.67 215.569C371.113 215.569 392.55 194.132 392.55 167.689C392.55 141.245 371.113 119.809 344.67 119.809C318.227 119.809 296.79 141.245 296.79 167.689C296.79 194.132 318.227 215.569 344.67 215.569Z" fill="#3FBDF1"/>
<path d="M360.41 151.711C359.737 150.152 358.83 148.705 357.72 147.421C355.828 145.17 353.179 143.688 350.271 143.254C347.364 142.819 344.397 143.462 341.93 145.061C340.317 146.103 338.97 147.507 337.994 149.162C337.019 150.816 336.442 152.675 336.31 154.591C333.792 153.68 331.046 153.611 328.486 154.394C325.925 155.177 323.688 156.769 322.11 158.933C320.532 161.096 319.698 163.713 319.734 166.39C319.77 169.067 320.674 171.661 322.31 173.781C325.74 178.251 331.57 181.191 336.85 182.901C339.62 183.782 342.471 184.389 345.36 184.711C346.82 184.871 355.17 185.991 355.95 184.711C361.05 176.581 364.75 161.651 360.41 151.711Z" fill="white"/>
<path d="M264.109 152.13C260.969 151.78 257.789 151.56 254.619 151.39C251.219 151.56 247.819 151.81 244.419 152.23C233.681 153.428 223.162 156.121 213.169 160.23C208.693 162.071 204.378 164.282 200.269 166.84C197.304 168.622 194.465 170.603 191.769 172.77C189.779 169.917 188.182 166.809 187.019 163.53C185.04 157.997 184.314 152.095 184.891 146.247C185.469 140.399 187.336 134.753 190.359 129.714C193.382 124.675 197.484 120.369 202.372 117.107C207.259 113.845 212.809 111.707 218.622 110.849C224.435 109.99 230.366 110.431 235.988 112.14C241.609 113.85 246.782 116.785 251.133 120.735C255.483 124.684 258.904 129.549 261.148 134.98C263.392 140.411 264.403 146.272 264.109 152.14V152.13Z" fill="#3FBDF1"/>
<path d="M244.42 152.229C233.682 153.427 223.163 156.12 213.17 160.229C212.59 158.689 212.11 157.229 211.95 156.729C211.148 154.457 210.569 152.113 210.22 149.729C209.61 145.169 209.7 139.729 211.82 135.579C212.81 133.586 214.422 131.97 216.412 130.974C218.402 129.978 220.662 129.657 222.851 130.059C225.04 130.461 227.038 131.565 228.544 133.203C230.05 134.841 230.983 136.924 231.2 139.139C232.686 138.56 234.285 138.328 235.874 138.462C237.464 138.595 239.001 139.09 240.37 139.909C242.399 141.147 243.921 143.066 244.663 145.324C245.405 147.581 245.319 150.029 244.42 152.229Z" fill="white"/>
<path d="M200.269 166.83C197.304 168.611 194.465 170.593 191.769 172.76C189.962 174.159 188.227 175.647 186.569 177.22C184.445 179.246 182.574 181.523 180.999 184C179.525 186.305 178.247 188.731 177.179 191.25C175.565 195.102 174.277 199.083 173.329 203.15C171.428 211.923 170.281 220.842 169.899 229.81C162.867 226.298 157.223 220.521 153.874 213.41C150.525 206.299 149.668 198.268 151.439 190.61C153.211 182.953 157.508 176.114 163.64 171.196C169.771 166.278 177.379 163.567 185.239 163.5C185.849 163.5 186.419 163.5 187.029 163.5C191.62 163.72 196.121 164.852 200.269 166.83Z" fill="#3FBDF1"/>
<path d="M181 184.001C179.526 186.307 178.248 188.732 177.18 191.251C175.566 195.103 174.278 199.084 173.33 203.151C171.25 200.261 169.48 196.801 169.2 193.341C169.102 192.097 169.262 190.847 169.67 189.667C170.077 188.488 170.723 187.405 171.568 186.486C172.412 185.567 173.437 184.833 174.578 184.328C175.719 183.823 176.952 183.559 178.2 183.551C179.152 183.539 180.099 183.692 181 184.001Z" fill="white"/>
<g opacity="0.72">
<path opacity="0.72" d="M400.02 161.661C414.578 161.661 426.38 149.86 426.38 135.301C426.38 120.743 414.578 108.941 400.02 108.941C385.462 108.941 373.66 120.743 373.66 135.301C373.66 149.86 385.462 161.661 400.02 161.661Z" fill="#3FBDF1"/>
<path opacity="0.72" d="M411.46 140.001C412.108 139.331 412.654 138.57 413.08 137.741C413.832 136.306 414.033 134.646 413.646 133.073C413.26 131.5 412.311 130.123 410.98 129.201C410.114 128.604 409.123 128.214 408.082 128.063C407.041 127.913 405.98 128.004 404.98 128.331C404.925 126.853 404.391 125.433 403.458 124.286C402.525 123.139 401.244 122.327 399.808 121.972C398.372 121.618 396.86 121.74 395.501 122.32C394.141 122.901 393.007 123.909 392.27 125.191C390.71 127.881 390.43 131.461 390.67 134.511C390.797 136.106 391.085 137.684 391.53 139.221C391.75 140.001 392.92 144.481 393.72 144.621C398.92 145.501 407.3 144.271 411.46 140.001Z" fill="white"/>
</g>
<g opacity="0.72">
<path opacity="0.72" d="M388.27 430.429C398.664 430.429 407.09 422.003 407.09 411.609C407.09 401.215 398.664 392.789 388.27 392.789C377.876 392.789 369.45 401.215 369.45 411.609C369.45 422.003 377.876 430.429 388.27 430.429Z" fill="#3FBDF1"/>
<path opacity="0.72" d="M396.431 415C396.894 414.522 397.282 413.976 397.581 413.38C398.117 412.358 398.261 411.175 397.987 410.054C397.712 408.932 397.038 407.95 396.091 407.29C395.47 406.86 394.757 406.579 394.009 406.472C393.261 406.364 392.498 406.432 391.781 406.67C391.736 405.619 391.352 404.611 390.686 403.796C390.021 402.982 389.109 402.404 388.088 402.151C387.067 401.898 385.991 401.982 385.022 402.391C384.053 402.8 383.242 403.512 382.711 404.42C381.692 406.483 381.293 408.796 381.561 411.08C381.653 412.218 381.861 413.344 382.181 414.44C382.341 414.99 383.181 418.2 383.741 418.29C387.481 418.89 393.461 418 396.431 415Z" fill="white"/>
</g>
<path d="M346.407 185.689L333.881 212.176C329.335 221.787 333.442 233.263 343.053 237.808L369.54 250.334C379.151 254.879 390.627 250.772 395.172 241.162L407.699 214.674C412.244 205.063 408.137 193.587 398.526 189.042L372.039 176.516C362.428 171.971 350.952 176.078 346.407 185.689Z" fill="#3FBDF1"/>
<path d="M400.56 219.318L391.49 238.498C389.592 242.504 386.184 245.596 382.012 247.095C377.84 248.594 373.244 248.38 369.23 246.498L346.23 235.618C342.225 233.718 339.136 230.31 337.637 226.139C336.138 221.968 336.351 217.373 338.23 213.358L338.84 212.058C345.09 207.058 355.9 200.338 359.84 209.508C365.52 222.708 372.9 218.438 382.34 212.918C390.26 208.248 399.72 206.698 400.56 219.318Z" fill="white"/>
<path d="M364.91 198.922C368.82 198.922 371.99 195.752 371.99 191.842C371.99 187.932 368.82 184.762 364.91 184.762C361 184.762 357.83 187.932 357.83 191.842C357.83 195.752 361 198.922 364.91 198.922Z" fill="white"/>
<path d="M433.81 272.269L417.312 307.155C411.329 319.806 416.735 334.913 429.387 340.896L464.272 357.394C476.924 363.377 492.03 357.971 498.013 345.319L514.511 310.434C520.494 297.782 515.088 282.676 502.437 276.693L467.551 260.195C454.899 254.212 439.793 259.618 433.81 272.269Z" fill="#3FBDF1"/>
<path d="M505.1 316.56L493.1 341.81C490.593 347.077 486.102 351.137 480.61 353.103C475.117 355.068 469.07 354.78 463.79 352.299L433.55 338C428.283 335.492 424.223 331.001 422.257 325.509C420.291 320.017 420.58 313.97 423.06 308.69L423.87 306.98C432.1 300.42 446.32 291.55 451.51 303.62C459 321 468.71 315.379 481.14 308.109C491.53 301.999 504 299.94 505.1 316.56Z" fill="white"/>
<path d="M458.16 289.699C463.307 289.699 467.48 285.526 467.48 280.379C467.48 275.231 463.307 271.059 458.16 271.059C453.013 271.059 448.84 275.231 448.84 280.379C448.84 285.526 453.013 289.699 458.16 289.699Z" fill="white"/>
<path d="M501.59 172.88C502.979 175.438 503.99 178.183 504.59 181.03C505.655 186.271 505.342 191.697 503.682 196.78C502.022 201.863 499.072 206.429 495.12 210.03C491.99 212.8 488 214.97 484.82 217.87C482.509 219.87 480.808 222.48 479.91 225.4C479.742 226.397 479.342 227.339 478.74 228.15C476.88 230.15 475.07 227.01 473.46 226.44C470.877 225.602 468.077 225.741 465.59 226.83C459.055 229.524 451.792 229.884 445.022 227.85C438.253 225.816 432.391 221.512 428.423 215.663C424.455 209.813 422.624 202.775 423.237 195.733C423.85 188.692 426.871 182.076 431.79 177C436.69 172 443.11 168.83 449.3 165.55C454.76 162.65 460.19 159.55 466.11 157.84C480.05 153.7 494.86 160.61 501.59 172.88Z" fill="#3FBDF1"/>
<path d="M445.67 209.039C449.354 209.039 452.34 206.053 452.34 202.369C452.34 198.685 449.354 195.699 445.67 195.699C441.986 195.699 439 198.685 439 202.369C439 206.053 441.986 209.039 445.67 209.039Z" fill="white"/>
<path d="M463.64 199.43C467.324 199.43 470.31 196.444 470.31 192.76C470.31 189.076 467.324 186.09 463.64 186.09C459.956 186.09 456.97 189.076 456.97 192.76C456.97 196.444 459.956 199.43 463.64 199.43Z" fill="white"/>
<path d="M480.5 190.41C484.184 190.41 487.17 187.424 487.17 183.74C487.17 180.057 484.184 177.07 480.5 177.07C476.816 177.07 473.83 180.057 473.83 183.74C473.83 187.424 476.816 190.41 480.5 190.41Z" fill="white"/>
<path d="M708.7 622.058V622.218L706.23 678.998L704.85 710.108C704.85 708.958 704.91 707.768 704.98 706.618C687.91 700.908 665.98 692.788 649.06 687.048C615.76 675.688 590.67 666.958 560.84 660.098C559.04 651.408 557.34 632.768 565.71 605.558C577.71 566.738 581.66 527.348 575.56 519.738C575.502 519.651 575.428 519.576 575.34 519.518C571 503.868 559.52 513.998 559.52 513.998C559.52 513.998 559.59 514.158 559.62 514.248C557.231 510.288 554.606 506.474 551.76 502.828C551.855 502.262 552.005 501.706 552.21 501.168C555.9 490.068 575.56 487.398 575.56 487.398C604.34 489.518 619.48 502.348 627.12 519.198C633.85 540.468 629.88 563.528 629.01 585.348C628.66 594.808 627.31 609.348 634.53 617.008C641.2 629.618 657.98 624.168 662.53 622.788C664.01 622.368 667.85 622.108 672.89 621.948C683.16 621.698 698.27 621.888 707.48 622.048C707.93 622.058 708.32 622.058 708.7 622.058Z" fill="#3FBDF1"/>
<path d="M310.399 111.711C308.303 112.178 306.151 112.339 304.009 112.191C300.081 111.881 296.3 110.555 293.038 108.345C289.775 106.134 287.143 103.114 285.399 99.5807C284.069 96.7907 283.399 93.5207 281.949 90.6807C281.003 88.6413 279.502 86.9088 277.619 85.6807C276.946 85.3604 276.36 84.8838 275.909 84.2907C274.909 82.5707 277.469 81.9307 278.199 80.9107C279.314 79.2513 279.787 77.243 279.529 75.2607C278.935 70.0724 280.151 64.8381 282.972 60.4433C285.793 56.0486 290.045 52.763 295.01 51.1423C299.974 49.5216 305.346 49.6654 310.216 51.5492C315.087 53.433 319.157 56.9413 321.739 61.4807C324.279 65.9707 325.209 71.1607 326.269 76.2107C327.209 80.6607 328.269 85.1307 328.269 89.6807C328.359 100.371 320.449 109.451 310.399 111.711Z" fill="#3FBDF1"/>
<path d="M300.92 71.0192C303.632 71.0192 305.83 68.8209 305.83 66.1092C305.83 63.3975 303.632 61.1992 300.92 61.1992C298.208 61.1992 296.01 63.3975 296.01 66.1092C296.01 68.8209 298.208 71.0192 300.92 71.0192Z" fill="white"/>
<path d="M304.059 85.6989C306.771 85.6989 308.969 83.5006 308.969 80.7889C308.969 78.0772 306.771 75.8789 304.059 75.8789C301.347 75.8789 299.149 78.0772 299.149 80.7889C299.149 83.5006 301.347 85.6989 304.059 85.6989Z" fill="white"/>
<path d="M307.01 99.4802C309.722 99.4802 311.92 97.2819 311.92 94.5702C311.92 91.8584 309.722 89.6602 307.01 89.6602C304.298 89.6602 302.1 91.8584 302.1 94.5702C302.1 97.2819 304.298 99.4802 307.01 99.4802Z" fill="white"/>
<g opacity="0.72">
<path opacity="0.72" d="M603.16 290.23C623.771 290.23 640.48 273.521 640.48 252.91C640.48 232.299 623.771 215.59 603.16 215.59C582.549 215.59 565.84 232.299 565.84 252.91C565.84 273.521 582.549 290.23 603.16 290.23Z" fill="#3FBDF1"/>
<path opacity="0.72" d="M604.56 270.34C605.818 270.741 607.13 270.947 608.45 270.95C610.742 270.98 612.967 270.172 614.706 268.679C616.446 267.186 617.582 265.11 617.9 262.84C618.106 261.358 617.964 259.849 617.487 258.431C617.01 257.013 616.21 255.726 615.15 254.67C616.979 253.654 618.427 252.071 619.278 250.16C620.129 248.249 620.336 246.114 619.868 244.075C619.399 242.036 618.281 240.205 616.682 238.857C615.083 237.509 613.089 236.717 611 236.6C606.61 236.35 601.91 238.28 598.2 240.52C596.269 241.701 594.46 243.071 592.8 244.61C591.95 245.39 587.03 249.74 587.37 250.83C589.57 258 596.48 267.83 604.56 270.34Z" fill="white"/>
</g>
<path d="M620.49 405.23C618.156 408.621 615.34 411.653 612.13 414.23C606.187 418.925 599.127 421.998 591.641 423.148C584.155 424.298 576.498 423.485 569.42 420.79C563.91 418.6 558.63 414.93 552.93 412.79C548.928 411.148 544.545 410.663 540.28 411.39C538.915 411.815 537.469 411.911 536.06 411.67C532.36 410.59 535.16 406.31 534.85 403.91C534.258 400.113 532.299 396.663 529.34 394.21C521.711 387.681 516.573 378.716 514.796 368.834C513.02 358.951 514.714 348.758 519.591 339.981C524.469 331.204 532.23 324.382 541.56 320.672C550.891 316.961 561.217 316.59 570.79 319.62C580.25 322.62 588.34 328.71 596.44 334.44C603.58 339.49 610.93 344.44 616.91 350.76C631 365.77 631.71 388.91 620.49 405.23Z" fill="#3FBDF1"/>
<path d="M547.54 362.829C552.754 362.829 556.98 358.603 556.98 353.389C556.98 348.176 552.754 343.949 547.54 343.949C542.326 343.949 538.1 348.176 538.1 353.389C538.1 358.603 542.326 362.829 547.54 362.829Z" fill="white"/>
<path d="M571.15 379.411C576.364 379.411 580.59 375.185 580.59 369.971C580.59 364.758 576.364 360.531 571.15 360.531C565.936 360.531 561.71 364.758 561.71 369.971C561.71 375.185 565.936 379.411 571.15 379.411Z" fill="white"/>
<path d="M593.31 394.958C598.524 394.958 602.75 390.732 602.75 385.518C602.75 380.305 598.524 376.078 593.31 376.078C588.096 376.078 583.87 380.305 583.87 385.518C583.87 390.732 588.096 394.958 593.31 394.958Z" fill="white"/>
<g opacity="0.54">
<path opacity="0.54" d="M333.82 125.101C333.695 126.731 333.444 128.349 333.07 129.941L328.89 148.071C327.61 153.621 326.17 159.471 322.2 163.551C314.8 171.121 302.41 169.391 292.08 167.091L266.72 161.461C260.9 160.161 254.98 158.841 249.72 155.941C244.46 153.041 239.98 148.331 238.72 142.481C237.83 138.171 238.79 133.721 239.72 129.421L243.67 112.001C244.94 106.301 246.38 100.271 250.49 96.1311C257.82 88.7411 269.96 90.4211 280.13 92.6211L306.06 98.2511C321.72 101.681 335.07 108.941 333.82 125.101Z" fill="#3FBDF1"/>
<path opacity="0.54" d="M298.85 125.589C299.935 126.6 300.734 127.878 301.169 129.296C301.603 130.714 301.657 132.221 301.325 133.666C300.992 135.111 300.285 136.443 299.275 137.528C298.265 138.613 296.987 139.414 295.57 139.849L287.84 142.219L280.12 144.579C278.699 145.016 277.189 145.07 275.741 144.736C274.292 144.402 272.958 143.692 271.872 142.678C270.785 141.664 269.986 140.381 269.554 138.959C269.121 137.537 269.072 136.026 269.41 134.579L271.22 126.699L273.03 118.829C273.365 117.384 274.073 116.052 275.085 114.968C276.096 113.883 277.375 113.083 278.793 112.649C280.212 112.214 281.719 112.16 283.165 112.492C284.61 112.824 285.943 113.53 287.03 114.539L292.94 120.049L298.85 125.589Z" fill="white"/>
</g>
<g opacity="0.54">
<path opacity="0.54" d="M618.799 159.998C618.673 161.628 618.423 163.247 618.049 164.838L613.869 182.998C612.589 188.548 611.149 194.398 607.179 198.468C599.779 206.048 587.389 204.308 577.059 202.018L551.699 196.378C545.879 195.088 539.959 193.758 534.699 190.868C529.439 187.978 524.959 183.248 523.699 177.408C522.809 173.098 523.769 168.648 524.699 164.348L528.659 146.998C529.919 141.288 531.359 135.268 535.469 131.118C542.799 123.738 554.939 125.408 565.109 127.618L590.999 133.208C606.699 136.598 620.049 143.868 618.799 159.998Z" fill="#3FBDF1"/>
<path opacity="0.54" d="M583.83 160.507C584.914 161.519 585.714 162.798 586.148 164.216C586.582 165.634 586.635 167.142 586.303 168.587C585.971 170.033 585.264 171.365 584.255 172.452C583.245 173.538 581.967 174.34 580.55 174.777L572.82 177.137L565.1 179.507C563.679 179.943 562.169 179.997 560.721 179.663C559.272 179.33 557.938 178.62 556.852 177.606C555.765 176.591 554.966 175.309 554.534 173.887C554.101 172.465 554.052 170.954 554.39 169.507L556.2 161.637L558.01 153.767C558.345 152.322 559.053 150.99 560.065 149.905C561.076 148.82 562.355 148.021 563.773 147.586C565.191 147.152 566.699 147.097 568.145 147.429C569.59 147.761 570.923 148.467 572.01 149.477L577.92 154.987L583.83 160.507Z" fill="white"/>
</g>
<g opacity="0.54">
<path opacity="0.54" d="M499.13 403.279C499.067 404.037 498.947 404.79 498.77 405.529L496.83 413.999C496.23 416.579 495.56 419.299 493.71 421.199C490.27 424.729 484.5 423.919 479.71 422.849L467.9 420.229C465.158 419.753 462.498 418.887 460 417.659C458.754 417.035 457.656 416.153 456.777 415.072C455.897 413.991 455.258 412.736 454.9 411.389C454.628 409.352 454.788 407.28 455.37 405.309L457.17 397.209C457.76 394.559 458.43 391.749 460.35 389.819C463.76 386.379 469.41 387.159 474.14 388.189L486.22 390.809C493.49 392.369 499.71 395.749 499.13 403.279Z" fill="#3FBDF1"/>
<path opacity="0.54" d="M482.84 403.508C483.346 403.978 483.72 404.573 483.923 405.234C484.126 405.895 484.151 406.597 483.996 407.27C483.841 407.944 483.511 408.564 483.039 409.07C482.568 409.575 481.971 409.947 481.31 410.148L477.72 411.248L474.12 412.348C473.459 412.554 472.756 412.582 472.08 412.43C471.405 412.277 470.782 411.948 470.275 411.477C469.767 411.006 469.393 410.41 469.191 409.748C468.988 409.086 468.963 408.382 469.12 407.708L470 403.998L470.84 400.328C470.993 399.653 471.321 399.03 471.792 398.523C472.263 398.015 472.859 397.641 473.52 397.438C474.182 397.235 474.886 397.211 475.56 397.367C476.234 397.523 476.855 397.855 477.36 398.328L480.11 400.888L482.84 403.508Z" fill="white"/>
</g>
<g opacity="0.54">
<path opacity="0.54" d="M374.64 52.1299C375.46 52.5566 376.249 53.0412 377 53.5799L385.4 59.7199C387.98 61.5899 390.67 63.6199 391.89 66.5599C394.16 72.0299 390.54 78.0199 387.09 82.8199L378.62 94.6199C376.807 97.4292 374.597 99.962 372.06 102.14C369.42 104.14 366 105.48 362.73 104.81C360.32 104.33 358.24 102.81 356.24 101.42L348.14 95.6099C345.49 93.7099 342.71 91.6099 341.48 88.6099C339.29 83.2099 342.82 77.3399 346.19 72.6099L354.78 60.5099C359.93 53.2099 366.6 47.9399 374.64 52.1299Z" fill="#3FBDF1"/>
<path opacity="0.54" d="M367.2 70.2214C367.955 69.8869 368.784 69.7561 369.605 69.8421C370.426 69.9281 371.21 70.228 371.879 70.7117C372.548 71.1954 373.078 71.8461 373.417 72.5988C373.756 73.3515 373.891 74.18 373.81 75.0014L373.33 79.5014L372.85 84.0014C372.762 84.8261 372.459 85.613 371.97 86.283C371.481 86.953 370.825 87.4825 370.067 87.818C369.308 88.1536 368.475 88.2835 367.65 88.1945C366.826 88.1056 366.039 87.801 365.37 87.3114L361.72 84.6514L358.07 82.0014C357.398 81.5137 356.866 80.8573 356.529 80.0985C356.192 79.3397 356.061 78.5053 356.149 77.6796C356.237 76.8539 356.542 76.0661 357.032 75.3957C357.522 74.7253 358.18 74.1961 358.94 73.8614L363.07 72.0314L367.2 70.2214Z" fill="white"/>
</g>
<path d="M770.549 807.002C770.544 807.176 770.524 807.35 770.489 807.522C770.474 807.564 770.474 807.61 770.489 807.652C769.082 816.991 765.205 825.784 759.259 833.122C759.189 833.182 759.159 833.282 759.099 833.342C749.959 844.732 736.709 852.952 723.299 858.112C709.599 863.442 695.709 865.592 685.819 864.852H685.599C673.499 863.952 660.219 865.522 648.599 867.702C647.379 867.932 646.159 868.152 644.939 868.412C637.269 869.952 629.699 871.872 622.199 873.992L620.789 874.382L619.849 874.632C612.849 828.792 608.109 781.852 608.109 781.852L751.109 807.262C757.545 808.43 764.146 808.342 770.549 807.002Z" fill="#3FBDF1"/>
<path d="M476.88 589.099C469.36 596.559 459.29 597.999 449.4 600.199C426.93 605.199 408.09 599.519 407.1 573.689C406.46 557.069 408.22 540.439 418.28 526.639C430.33 510.109 448.84 499.099 467.28 491.059C467.28 491.059 475.74 534.339 514.28 536.219C552.82 538.099 543.44 588.909 498.28 580.439" stroke="black" stroke-width="4.47" stroke-miterlimit="10"/>
<path d="M505.85 602.082C506.85 602.082 507.77 602.082 508.7 602.012C508.926 601.997 509.154 601.997 509.38 602.012H509.47L511.24 601.852" stroke="black" stroke-width="4.47" stroke-miterlimit="10"/>
<path d="M548.55 496.37C542.231 488.859 534.68 482.478 526.22 477.5C525.279 476.88 524.304 476.313 523.3 475.8C522.3 475.23 521.3 474.68 520.3 474.17C518.19 473.08 516 472.05 513.76 471.17C500.536 465.633 486.337 462.801 472 462.84C394.88 462.84 416.31 529.57 416.31 529.57" stroke="black" stroke-width="4.47" stroke-miterlimit="10"/>
<path d="M561.349 659.441C558.689 645.261 562.02 623.191 565.71 605.541C569.02 589.821 572.64 577.632 572.64 577.632C578.1 545.551 577.87 528.351 575.34 519.501C571 503.871 559.52 514.001 559.52 514.001" stroke="black" stroke-width="4.47" stroke-miterlimit="10"/>
<path d="M575.34 519.501C571 503.871 559.52 514.001 559.52 514.001C557.536 509.482 555.086 505.182 552.21 501.171C551.05 499.558 549.83 497.984 548.55 496.451C551.98 487.341 561.13 481.911 570.55 481.181C595.28 479.281 619.66 495.651 627.11 519.181C633.84 540.451 629.87 563.511 629 585.331C628.65 594.791 627.3 609.331 634.52 616.991C634.9 617.381 635.26 617.731 635.67 618.081C641.67 623.251 651.23 623.541 662.56 622.771C665.86 622.541 669.33 622.261 672.92 621.931C683.92 620.931 695.92 620.071 707.51 622.031L708.66 622.221C708.31 641.121 707.15 660.081 706.19 678.981C705.68 688.181 705.19 697.391 704.94 706.601C687.87 700.891 665.94 692.771 649.02 687.031L640 683.921C611.09 674.071 587.93 666.301 560.89 660.081C550.46 657.671 539.46 655.521 527.3 653.531L514.37 651.261C513.503 651.11 512.718 650.656 512.154 649.98C511.59 649.305 511.284 648.451 511.29 647.571V601.821C519.925 601.088 528.273 598.366 535.68 593.87C543.088 589.373 549.355 583.223 553.99 575.901C566.5 555.781 567.69 535.191 560.85 517.121C560.606 516.399 560.323 515.691 560 515.001C559.925 514.793 559.838 514.589 559.74 514.391C559.74 514.331 559.68 514.231 559.65 514.161" stroke="black" stroke-width="4.47" stroke-miterlimit="10"/>
<path d="M241.56 683.921C245.56 652.921 247.4 621.391 251.28 590.211" stroke="black" stroke-width="4.47" stroke-miterlimit="10"/>
<path d="M251.92 585.332C253.01 576.892 254.3 568.452 255.92 560.112C255.98 559.702 256.05 559.312 256.14 558.932C257.04 553.992 258.04 549.082 259.14 544.172C262.48 529.482 274.14 518.732 282.43 506.762L282.94 505.482C300.825 479.462 310.727 448.788 311.43 417.222C311.63 405.802 311.18 383.222 298.09 378.562C290.74 375.932 282.94 381.072 278.87 386.942C277.198 389.365 275.854 391.998 274.87 394.772" stroke="black" stroke-width="4.47" stroke-miterlimit="10"/>
<path d="M370.79 949.998C338.86 859.338 354 760.298 354 760.298L306.91 761.778L182.69 765.718C175.394 765.959 168.132 764.631 161.394 761.824C154.655 759.016 148.598 754.795 143.632 749.446C138.665 744.096 134.905 737.743 132.605 730.815C130.305 723.887 129.519 716.546 130.3 709.288L167.2 574.578" stroke="black" stroke-width="4.47" stroke-miterlimit="10"/>
<path d="M168.99 568L172.23 556.2L175.99 542.82" stroke="black" stroke-width="4.47" stroke-miterlimit="10"/>
<path d="M179.19 531.301L181.34 523.571C184.188 513.308 183.483 502.384 179.34 492.571L175.07 482.371C172.28 473.871 171.41 469.761 174.91 461.451C176.566 457.53 178.891 453.927 181.78 450.801C190.21 441.501 202.08 436.881 214.31 435.301C226.54 433.721 240.04 434.951 249.88 442.881C256.56 448.261 262.88 461.071 258.51 469.441C255.34 475.531 248.63 477.301 242.92 475.121C240.922 474.373 239.122 473.176 237.66 471.621C230.92 464.561 216.66 463.021 211.66 469.891" stroke="black" stroke-width="4.47" stroke-miterlimit="10"/>
<path d="M704.66 717.832C704.66 715.322 704.75 712.832 704.85 710.292V710.092C704.85 708.942 704.91 707.752 704.98 706.602" stroke="black" stroke-width="4.47" stroke-miterlimit="10"/>
<path d="M691.83 477.629C680.12 483.889 665.74 499.629 690 536.629C698 548.819 706.45 561.999 707.64 577.049C708.749 592.088 709.103 607.174 708.7 622.249" stroke="black" stroke-width="4.47" stroke-miterlimit="10"/>
<path d="M578.26 776.602L606.1 781.542L608.1 781.892L620.87 784.172L751.08 807.302C757.526 808.474 764.138 808.386 770.55 807.042C781.685 804.697 791.718 798.702 799.057 790.006C806.395 781.31 810.62 770.412 811.06 759.042L791.82 601.532L787.56 567.912C786.208 557.338 788.478 546.619 794 537.502L799.71 528.002C799.71 528.002 809.65 513.502 792.26 512.442C782.89 511.892 773.14 514.442 764.67 518.282C759.83 520.432 753.03 524.282 750.3 529.572C749.19 531.574 748.815 533.902 749.24 536.152C751.24 546.482 764.24 550.842 772.82 546.482" stroke="black" stroke-width="4.47" stroke-miterlimit="10"/>
<path d="M798 513.191C798 513.191 807.83 507.341 801.18 492.951C798.82 487.831 791.67 484.281 776.28 485.261C735.28 487.871 719.22 530.031 750.35 529.571" stroke="black" stroke-width="4.47" stroke-miterlimit="10"/>
<path d="M788.66 485.191C797.76 472.651 781.66 460.651 769.93 461.061C758.87 461.451 747.68 465.541 737.99 470.661C724.51 477.781 707.11 491.571 712.09 509.021C713.56 514.161 725.19 520.511 732.79 516.841" stroke="black" stroke-width="4.47" stroke-miterlimit="10"/>
<path d="M711.23 502.819C711.23 502.819 711.23 502.819 711.23 502.879C704.88 515.009 674.82 502.879 691.79 477.629C695.754 472.043 700.507 467.061 705.9 462.839C748.22 428.259 757.68 463.419 757.62 461.329" stroke="black" stroke-width="4.47" stroke-miterlimit="10"/>
<path d="M729.649 517.121C729.649 517.121 745.129 528.121 740.379 546.451" stroke="black" stroke-width="4.47" stroke-miterlimit="10"/>
<path d="M184.65 429.131C183.65 425.191 183.78 420.221 186.12 413.861C189.49 404.721 199.31 398.721 208.87 394.771C212.36 393.331 215.87 392.141 218.87 391.211C229.3 388.011 240.75 386.311 251.87 387.431C255.618 387.794 259.323 388.504 262.94 389.551C267.112 390.754 271.104 392.51 274.81 394.771C283.95 400.391 290.14 408.921 293.86 420.121C297.1 429.781 298.35 441.261 290.33 447.291" stroke="black" stroke-width="4.47" stroke-miterlimit="10"/>
<path d="M291.06 575.831L288.11 590.111C288.012 590.592 287.819 591.047 287.541 591.451C287.263 591.855 286.907 592.198 286.494 592.462C286.08 592.725 285.618 592.902 285.135 592.983C284.651 593.063 284.156 593.046 283.68 592.931C272.33 590.241 262.38 587.741 251.92 585.331C246.73 584.111 241.37 582.961 235.69 581.771C213.49 577.181 191.32 572.001 169 568.001C159.67 566.331 150.33 564.881 140.93 563.791C135.67 563.181 130.34 562.931 125.05 562.541C123.894 562.515 122.773 562.135 121.84 561.451C116.84 557.791 121.84 545.891 122.93 540.951C122.93 540.891 122.93 540.821 122.93 540.761C123.7 536.971 145.48 538.061 175.93 542.811C186.55 544.481 198.22 546.561 210.45 549.071C227.64 552.601 243.14 556.411 255.81 560.071C257.99 560.711 260.08 561.321 262.07 561.931C262.07 561.931 262.07 561.931 262.13 561.931C264.66 562.731 267.04 563.501 269.28 564.271C283.43 569.101 291.58 573.301 291.06 575.831Z" fill="#3FBDF1"/>
<path d="M291.06 575.831L288.11 590.111C288.012 590.592 287.819 591.047 287.541 591.451C287.263 591.855 286.907 592.198 286.494 592.462C286.08 592.725 285.618 592.902 285.135 592.983C284.651 593.063 284.156 593.046 283.68 592.931C272.33 590.241 262.38 587.741 251.92 585.331C246.73 584.111 241.37 582.961 235.69 581.771C213.49 577.181 191.32 572.001 169 568.001C159.67 566.331 150.33 564.881 140.93 563.791C135.67 563.181 130.34 562.931 125.05 562.541C123.894 562.515 122.773 562.135 121.84 561.451C116.84 557.791 121.84 545.891 122.93 540.951C122.93 540.891 122.93 540.821 122.93 540.761C123.7 536.971 145.48 538.061 175.93 542.811C186.55 544.481 198.22 546.561 210.45 549.071C227.64 552.601 243.14 556.411 255.81 560.071C257.99 560.711 260.08 561.321 262.07 561.931C262.07 561.931 262.07 561.931 262.13 561.931C264.66 562.731 267.04 563.501 269.28 564.271C283.43 569.101 291.58 573.301 291.06 575.831Z" stroke="black" stroke-width="4.47" stroke-miterlimit="10"/>
<path d="M259.92 461.75L262.76 467.44C266.33 471.35 271.27 473.82 278.04 472.12C291.32 468.82 292.63 457.81 290.32 447.29C289.923 445.38 289.409 443.496 288.78 441.65C285.67 432.37 280.86 424.9 274.12 419.45C269.331 415.573 263.797 412.721 257.86 411.07C253.023 409.673 248.032 408.877 243 408.7C233.113 408.359 223.241 409.712 213.81 412.7C204.38 415.59 191.48 420.56 184.62 429.09C183.083 430.964 181.867 433.079 181.02 435.35C178.91 441.09 178.55 445.74 179.29 449.5L180 453" stroke="black" stroke-width="4.47" stroke-miterlimit="10"/>
<path d="M263.599 389.772L266.899 376.102L270.819 360.002C271.372 357.68 271.442 355.27 271.023 352.92C270.604 350.571 269.705 348.333 268.383 346.346C267.061 344.359 265.344 342.665 263.339 341.371C261.334 340.076 259.084 339.209 256.729 338.822C255.807 338.669 254.874 338.596 253.939 338.602C249.982 338.592 246.141 339.94 243.058 342.421C239.976 344.902 237.837 348.365 236.999 352.232C235.999 356.892 234.749 362.562 233.369 368.952C232.059 375.012 230.609 381.652 229.069 388.652" stroke="black" stroke-width="4.47" stroke-miterlimit="10"/>
<path d="M224.43 410.139V410.109" stroke="black" stroke-width="2.98" stroke-miterlimit="10"/>
<path d="M211.69 469.879C210.69 474.789 210.12 477.879 210.15 478.409C210.15 478.409 210.15 478.409 210.15 478.479C205.82 507.579 193.08 523.139 179.22 531.249C170.743 536.072 161.275 538.894 151.54 539.499" stroke="black" stroke-width="4.47" stroke-miterlimit="10"/>
<path d="M243 475.109C243 475.109 219.78 536.999 256.09 558.939C258.01 560.092 260.016 561.095 262.09 561.939C264.575 562.971 267.14 563.797 269.76 564.409" stroke="black" stroke-width="4.47" stroke-miterlimit="10"/>
<path d="M286.19 592.641C286.19 592.641 286.35 595.501 251.28 590.211C239.28 588.411 223.15 585.651 201.46 581.481C187.86 578.881 176.56 576.571 167.2 574.581C118.02 564.061 121.83 561.461 121.83 561.461" stroke="black" stroke-width="4.47" stroke-miterlimit="10"/>
<path d="M384.999 244.75C377.519 284.4 352.879 326.14 322.999 352.93C310.779 363.93 296.569 371.6 281.229 374.62C276.522 375.577 271.732 376.07 266.929 376.09L270.819 360C271.774 356.037 271.308 351.865 269.503 348.21C267.697 344.555 264.667 341.65 260.939 340C259.592 339.422 258.183 339.002 256.739 338.75C255.814 338.597 254.877 338.523 253.939 338.53C249.974 338.524 246.127 339.88 243.042 342.372C239.958 344.865 237.825 348.342 236.999 352.22C236.389 355.14 235.649 358.45 234.849 362.07C196.849 336.95 180.369 283.22 182.199 239.59C182.779 225.09 183.579 206 189.929 191.24C192.072 185.98 195.271 181.215 199.329 177.24C217.329 160.3 241.969 152.57 267.379 151.41C286.882 152.33 306.076 156.641 324.099 164.15C357.699 178.34 392.759 203.5 384.999 244.75Z" fill="#3FBDF1"/>
<path d="M384.999 244.75C377.519 284.4 352.879 326.14 322.999 352.93C310.779 363.93 296.569 371.6 281.229 374.62L284.779 360C285.332 357.679 285.402 355.268 284.983 352.918C284.563 350.569 283.665 348.331 282.343 346.344C281.021 344.357 279.304 342.663 277.299 341.369C275.294 340.075 273.044 339.207 270.689 338.82C269.767 338.667 268.834 338.594 267.899 338.6C265.488 338.59 263.102 339.091 260.899 340.07C259.552 339.492 258.143 339.072 256.699 338.82C255.774 338.667 254.837 338.593 253.899 338.6C249.95 338.599 246.12 339.95 243.046 342.428C239.971 344.906 237.837 348.361 236.999 352.22C236.389 355.14 235.649 358.45 234.849 362.07C196.849 336.95 180.369 283.22 182.199 239.59C182.779 225.09 183.579 206 189.929 191.24C192.072 185.98 195.271 181.215 199.329 177.24C217.329 160.3 241.969 152.57 267.379 151.41C286.882 152.33 306.076 156.641 324.099 164.15C357.699 178.34 392.759 203.5 384.999 244.75Z" fill="#3FBDF1"/>
<path d="M385 244.76C377.53 284.41 352.89 326.15 323 352.94C307 367.28 287.69 376 266.9 376.1L270.82 360C271.373 357.679 271.443 355.268 271.024 352.918C270.604 350.569 269.706 348.331 268.384 346.344C267.062 344.357 265.345 342.663 263.34 341.369C261.335 340.074 259.085 339.207 256.73 338.82C255.808 338.667 254.875 338.594 253.94 338.6C249.983 338.59 246.142 339.939 243.059 342.419C239.976 344.9 237.838 348.363 237 352.23C236 356.89 234.75 362.56 233.37 368.95C186.47 348.16 166.22 287.75 168.25 239.6C168.82 225.1 169.62 206.01 175.98 191.25C178.119 185.988 181.319 181.222 185.38 177.25C220.79 143.95 281.72 146.25 324.1 164.16C357.69 178.35 392.76 203.5 385 244.76Z" stroke="black" stroke-width="4.47" stroke-miterlimit="10"/>
<path d="M384.799 246.191C392.889 255.871 400.479 272.091 393.799 296.191C392.772 299.994 391.302 303.662 389.419 307.121C378.799 326.121 358.299 329.451 344.479 329.251" stroke="black" stroke-width="4.47" stroke-miterlimit="10"/>
<path d="M378.64 266.461C385.64 274.841 392.11 288.111 389.41 307.141C388.981 310.196 388.35 313.219 387.52 316.191C377.52 352.111 340.81 350.341 328.21 348.591" stroke="black" stroke-width="4.47" stroke-miterlimit="10"/>
<path d="M182.59 315.998C174.77 317.608 130.52 308.528 129.98 271.638C129.821 266.638 130.764 261.664 132.74 257.068C139.67 241.448 157.95 236.508 168.48 234.898" stroke="black" stroke-width="4.47" stroke-miterlimit="10"/>
<path d="M174.629 297.509C166.629 297.999 124.119 282.829 128.729 246.219C129.279 241.26 130.907 236.482 133.499 232.219C142.499 217.709 161.339 215.379 171.979 215.219" stroke="black" stroke-width="4.47" stroke-miterlimit="10"/>
<path d="M354 760.31C354 760.31 354.91 753.36 359.91 737.66" stroke="black" stroke-width="4.47" stroke-miterlimit="10"/>
<path d="M518.46 651.928V651.998C518.1 675.908 501.46 681.328 487.79 683.928C454.1 690.368 430.71 665.798 431.74 644.398" stroke="black" stroke-width="4.47" stroke-miterlimit="10"/>
<path d="M438.13 520.371C438.13 520.371 439.13 531.371 429.56 545.561C427 549.381 435.86 550.951 437.97 551.661" stroke="black" stroke-width="4.47" stroke-miterlimit="10"/>
<path d="M476.714 544.177C482.397 534.333 480.517 522.609 472.515 517.989C464.513 513.369 453.42 517.603 447.737 527.447C442.054 537.29 443.933 549.015 451.935 553.635C459.937 558.254 471.031 554.02 476.714 544.177Z" stroke="black" stroke-width="4.47" stroke-miterlimit="10"/>
<path d="M437.016 531.443C442.699 521.554 440.79 509.793 432.751 505.173C424.713 500.553 413.589 504.824 407.906 514.713C402.223 524.601 404.133 536.362 412.171 540.982C420.21 545.602 431.333 541.331 437.016 531.443Z" stroke="black" stroke-width="4.48539" stroke-miterlimit="10"/>
<path d="M423.169 510.441C424.839 510.426 426.482 510.857 427.929 511.691C429.274 512.517 430.415 513.638 431.266 514.968C432.116 516.298 432.654 517.804 432.839 519.371C433.382 523.282 432.567 527.26 430.529 530.641C427.529 535.791 422.529 539.111 417.579 539.111C415.91 539.131 414.266 538.703 412.819 537.871C411.475 537.044 410.335 535.923 409.485 534.593C408.635 533.263 408.096 531.759 407.909 530.191C407.366 526.278 408.181 522.296 410.219 518.911C413.219 513.771 418.219 510.441 423.169 510.441ZM423.169 507.441C417.389 507.441 411.259 511.121 407.639 517.441C402.639 526.101 404.289 536.441 411.329 540.441C413.229 541.536 415.386 542.106 417.579 542.091C423.359 542.091 429.489 538.401 433.119 532.091C438.119 523.441 436.459 513.091 429.419 509.091C427.517 508.003 425.36 507.438 423.169 507.451V507.441Z" fill="white"/>
<path d="M433.114 532.105C438.112 523.448 436.46 513.137 429.424 509.075C422.389 505.013 412.633 508.738 407.635 517.395C402.637 526.052 404.29 536.363 411.325 540.425C418.361 544.487 428.115 540.762 433.114 532.105Z" fill="#3FBDF1"/>
<path d="M477.151 541.33C482.15 532.633 480.472 522.29 473.404 518.228C466.336 514.166 456.554 517.923 451.556 526.62C446.558 535.317 448.236 545.66 455.304 549.722C462.372 553.784 472.153 550.027 477.151 541.33Z" fill="#3FBDF1"/>
<path d="M438 524C438 524 441 519.53 447.77 527.44" stroke="black" stroke-width="4.47" stroke-miterlimit="10"/>
<path d="M467.436 534.926C469.065 532.793 468.919 529.944 467.111 528.563C465.302 527.183 462.516 527.793 460.887 529.926C459.258 532.06 459.404 534.908 461.213 536.289C463.021 537.67 465.808 537.06 467.436 534.926Z" fill="#353642"/>
<path d="M433.701 525.215C435.329 523.082 435.184 520.233 433.375 518.852C431.566 517.472 428.78 518.082 427.151 520.215C425.522 522.349 425.668 525.197 427.477 526.578C429.285 527.959 432.072 527.349 433.701 525.215Z" fill="#353642"/>
<path d="M458.53 569.488C438.05 586.888 427.3 571.388 427.3 571.388" stroke="black" stroke-width="4.47" stroke-miterlimit="10"/>
<path d="M241.56 669.51C259.27 666.34 277.14 663.86 294.69 660.62C303.25 659.047 311.803 657.52 320.35 656.04C358.43 649.56 396.45 644.52 434.95 644.36C436.809 644.361 438.606 643.689 440.008 642.469C441.411 641.248 442.324 639.562 442.58 637.72L443.29 632.39L447.78 599.16" stroke="black" stroke-width="4.47" stroke-miterlimit="10"/>
<path d="M511.24 601.819V601.659V600.859" stroke="black" stroke-width="4.47" stroke-miterlimit="10"/>
<path d="M121.76 950H341.11H365.92H578.45H618.27H883.71" stroke="black" stroke-width="4.47" stroke-miterlimit="10"/>
<path d="M608.09 781.891C608.09 781.891 612.81 828.831 619.83 874.671C624.45 904.831 630.1 934.501 636 950.001" stroke="black" stroke-width="4.47" stroke-miterlimit="10"/>
<path d="M619.83 874.668L620.76 874.418L622.18 874.028C629.68 871.908 637.25 870.028 644.92 868.448C646.14 868.188 647.36 867.968 648.58 867.738C657.133 866.161 665.804 865.315 674.5 865.208C678.35 865.208 682.04 865.078 685.57 864.888H685.79C700.58 864.048 712.94 861.678 723.27 858.148C740.14 852.408 751.53 843.588 759.07 833.378C759.13 833.318 759.16 833.218 759.23 833.158C764.715 825.548 768.541 816.871 770.46 807.688C770.445 807.646 770.445 807.6 770.46 807.558L770.56 807.078" stroke="black" stroke-width="4.47" stroke-miterlimit="10"/>
</g>
</svg>
